<?xml version="1.0" standalone="no"?>
<!DOCTYPE svg PUBLIC "-//W3C//DTD SVG 1.1//EN" "http://www.w3.org/Graphics/SVG/1.1/DTD/svg11.dtd">
<svg xmlns="http://www.w3.org/2000/svg">
<defs >
<font id="Phudu" horiz-adv-x="495" ><font-face
    font-family="Phudu Light Medium"
    units-per-em="1000"
    panose-1="0 0 0 0 0 0 0 0 0 0"
    ascent="1025"
    descent="-200"
    alphabetic="0" />
<glyph unicode=" " horiz-adv-x="253" />
<glyph unicode="!" horiz-adv-x="241" d="M121 -12Q88 -12 68 9T47 61Q47 92 67 113T121 135Q153 135 173 114T194 61Q194 31 174 10T121 -12ZM170 177H73L53 700H190L170 177Z" />
<glyph unicode="&quot;" horiz-adv-x="310" d="M117 505H45L27 701H140L117 505ZM261 505H188L169 701H283L261 505Z" />
<glyph unicode="#" horiz-adv-x="668" d="M307 700H347V688L129 0H89V12L307 700ZM527 700H567V688L349 0H309V12L527 700ZM99 499H645V460H99V499ZM23 243H568V204H23V243Z" />
<glyph unicode="$" horiz-adv-x="473" d="M448 182Q448 96 398 46T267 -11V-82H233V-12Q187 -10 148 1T82 28T40 54V175H57Q88 146 136 124T229 101Q255 101 276 109T310 134T323 175Q323 196 315 212T287 244T237 278L164 321Q142 334 118 351T73 391T38 447T25
521Q25 583 52 625T125 689T230 711H233V782H267V708Q318 701 352 682T405 646V525H389Q378 539 353 556T296 585T230 598Q198 598 174 580T150 529Q150 497 176 474T243 425L310 383Q355 355 385 327T432 264T448 182Z" />
<glyph unicode="%" horiz-adv-x="580" d="M496 700H519V688L84 0H61V12L496 700ZM431 -5Q377 -5 345 30T312 114Q312 164 344 199T431 234Q466 234 493 218T535 175T550 114Q550 64 517 30T431 -5ZM431 39Q464 39 485 61T506 114Q506 146 485 168T431 190Q397
190 377 168T356 114Q356 83 376 61T431 39ZM153 722Q99 722 67 757T34 841Q34 891 66 926T153 961Q188 961 215 945T257 902T272 841Q272 791 239 757T153 722ZM153 766Q186 766 207 788T228 841Q228 873 207 895T153 917Q119 917 99 895T78 841Q78 810 98 788T153
766Z" />
<glyph unicode="&amp;" horiz-adv-x="604" d="M228 285Q200 264 184 247T160 213T152 177Q152 141 180 115T259 89Q298 89 332 109T394 168T436 259T451 375V443H563V407Q563 354 555 296T525 184T467 85T373 15T235 -11Q172 -11 125 11T51 73T25 163Q25 211 42
243T87 297T142 339Q145 341 149 344T158 350T165 354Q135 390 114 419T82 476T71 537Q71 589 96 628T168 689T275 712Q335 712 379 692T446 636T470 555Q470 507 453 474T401 413T318 350L428 221Q458 188 482 164T527 126T570 113L577 107V0Q545 0 521 5T473
25T423 64T361 130L228 285ZM258 417Q287 435 307 452T338 490T349 538Q349 565 328 586T274 607Q239 607 216 588T192 536Q192 512 208 485T258 417Z" />
<glyph unicode="&apos;" horiz-adv-x="168" d="M118 505H46L27 701H141L118 505Z" />
<glyph unicode="(" horiz-adv-x="233" d="M27 350Q27 442 47 526T106 681T197 803H217V795Q169 742 136 671T86 518T69 350Q69 264 86 183T136 30T217 -95V-103H197Q145 -52 107 18T48 173T27 350Z" />
<glyph unicode=")" horiz-adv-x="233" d="M207 350Q207 258 186 174T127 19T36 -103H17V-95Q65 -41 98 30T147 182T164 350Q164 436 148 517T98 670T17 795V803H36Q89 752 127 682T186 527T207 350Z" />
<glyph unicode="*" horiz-adv-x="321" d="M143 700H178V400H143V700ZM22 610L39 640L299 490L282 460L22 610ZM282 640L299 610L39 460L22 490L282 640Z" />
<glyph unicode="+" horiz-adv-x="475" d="M40 362H435V328H40V362ZM255 543V148H221V543H255Z" />
<glyph unicode="," horiz-adv-x="203" d="M97 -70H22L66 128H183V118L97 -70Z" />
<glyph unicode="-" horiz-adv-x="465" d="M35 362H430V328H35V362Z" />
<glyph unicode="." horiz-adv-x="203" d="M176 62Q176 30 155 9T102 -12Q70 -12 49 9T28 62Q28 91 49 113T102 136Q133 136 154 114T176 62Z" />
<glyph unicode="/" horiz-adv-x="323" d="M275 782H307V770L49 -82H17V-70L275 782Z" />
<glyph unicode="0" horiz-adv-x="557" d="M32 312Q32 224 51 163T104 63T183 7T279 -11Q330 -11 374 7T453 63T507 162T526 312V389Q526 477 507 539T454 639T375 694T279 712Q228 712 184 695T105 639T51 539T32 389V312ZM158 313V386Q158 494 190 545T279 596Q333
596 366 545T400 386V313Q400 209 368 157T279 105Q221 105 190 157T158 313Z" />
<glyph unicode="1" horiz-adv-x="334" d="M157 0V567L40 497H28V624L156 700H280V0H157Z" />
<glyph unicode="2" horiz-adv-x="480" d="M450 515Q450 567 433 604T385 665T316 700T236 712Q161 712 110 690T32 646V524H49Q63 538 88 555T147 584T215 597Q266 597 295 572T324 502Q324 481 319 459T298 410T250 343T163 247T28 111V0H446V119H204V129L313
243Q359 294 389 337T435 424T450 515Z" />
<glyph unicode="3" horiz-adv-x="481" d="M190 319H132V401L291 570V580H40V700H444V588L269 403V395Q321 391 363 370T430 308T456 205Q456 132 425 85T341 13T228 -11Q172 -11 133 -1T69 25T27 55V176H37Q46 167 70 150T130 117T209 102Q259 102 293 129T327
210Q327 267 290 293T190 319Z" />
<glyph unicode="4" horiz-adv-x="537" d="M319 0V539L143 280V268H515V161H20V280L303 700H442V0H319Z" />
<glyph unicode="5" horiz-adv-x="506" d="M164 442H246Q320 442 370 415T446 339T473 224Q473 152 445 100T367 18T246 -11Q194 -11 155 -1T88 25T44 55V176H54Q63 167 87 150T147 117T227 102Q281 102 312 131T344 213Q344 249 327 275T275 317T191 332H44V384V700H435V580H164V442Z"
/>
<glyph unicode="6" horiz-adv-x="536" d="M27 248Q27 167 60 112T149 28T272 0Q339 0 394 28T483 111T517 248Q517 319 488 369T412 447T310 475Q269 475 245 466T201 444L199 453Q208 475 228 507T274 574T325 643T372 700V712H241Q222 693 201 666T159 609T121
549Q79 477 53 402T27 248ZM153 251Q153 285 166 314T207 361T273 379Q310 379 336 362T377 316T391 252Q391 215 377 186T336 141T272 124Q234 124 207 141T167 187T153 251Z" />
<glyph unicode="7" horiz-adv-x="448" d="M433 573L219 0H84L302 572V582H13V700H433V573Z" />
<glyph unicode="8" horiz-adv-x="563" d="M281 -12Q204 -12 146 15T56 91T23 202Q23 244 37 276T73 330T115 366T153 384V392Q134 399 111 415T71 462T53 538Q53 587 80 626T158 689T281 712Q354 712 405 689T483 627T510 538Q510 492 493 462T452 416T409 392V384Q425
380 447 367T490 331T525 276T539 202Q539 140 507 92T417 16T281 -12ZM281 311Q243 311 214 299T169 264T152 209Q152 176 169 152T216 115T281 102Q316 102 345 114T393 151T411 209Q411 241 393 264T346 299T281 311ZM281 425Q331 425 361 449T391 515Q391 558
360 582T281 606Q234 606 203 582T172 515Q172 473 202 449T281 425Z" />
<glyph unicode="9" horiz-adv-x="536" d="M509 464Q509 546 476 601T387 684T264 712Q198 712 142 684T53 601T19 464Q19 394 48 343T124 265T226 237Q267 237 292 246T335 268L337 259Q328 238 308 206T262 138T211 69T164 12V0H295Q314 20 335 46T377 103T415
163Q457 235 483 310T509 464ZM383 461Q383 428 370 399T329 351T263 333Q226 333 200 350T159 397T145 460Q145 497 159 526T200 571T264 588Q303 588 329 571T369 525T383 461Z" />
<glyph unicode=":" horiz-adv-x="198" d="M99 -7Q67 -7 47 14T26 67Q26 97 46 119T99 141Q131 141 151 119T172 67Q172 36 152 15T99 -7ZM99 324Q67 324 47 345T26 397Q26 428 46 449T99 471Q131 471 151 450T172 397Q172 367 152 346T99 324Z" />
<glyph unicode=";" horiz-adv-x="213" d="M115 324Q83 324 63 345T42 397Q42 428 62 449T115 471Q147 471 167 450T188 397Q188 367 168 346T115 324ZM89 -70H13L57 128H174V118L89 -70Z" />
<glyph unicode="&lt;" horiz-adv-x="419" d="M382 161L25 320V380L382 539V502L60 356V344L382 198V161Z" />
<glyph unicode="=" horiz-adv-x="467" d="M36 439H431V404H36V439ZM36 296H431V261H36V296Z" />
<glyph unicode="&gt;" horiz-adv-x="419" d="M37 161V198L359 344V356L37 502V539L394 380V320L37 161Z" />
<glyph unicode="?" horiz-adv-x="458" d="M265 222V177H142V244Q142 281 148 311T170 367T215 415L233 429Q262 451 279 473T296 525Q296 557 275 577T211 597Q184 597 157 589T107 569T67 545T43 524H33V646Q48 659 73 674T135 700T216 711Q274 711 320 692T395
633T423 532Q423 487 406 453T365 393T315 347Q291 329 281 308T268 266T265 222ZM205 -12Q173 -12 153 9T132 61Q132 92 152 113T205 135Q238 135 258 114T279 61Q279 31 259 10T205 -12Z" />
<glyph unicode="@" horiz-adv-x="741" d="M438 194L450 133Q460 69 493 36T583 3Q631 3 655 26T688 88T697 172V388Q697 499 656 570T542 677T370 712Q272 712 199 677T84 571T43 391V191Q43 84 83 20T193 -72T350 -101Q399 -101 434 -94T487 -74V5L478 8Q459
-3 426 -11T348 -19Q278 -19 229 2T156 70T131 194V387Q131 508 189 569T370 630Q494 630 552 569T610 383V144Q610 117 603 101T582 85Q566 85 557 98T541 140L455 548H285L185 80V73H284L304 194H438ZM317 275L347 448H393L426 275H317Z" />
<glyph unicode="A" horiz-adv-x="561" d="M10 0V22L164 700L396 699L551 22V0H423L384 192H177L138 0H10ZM195 300H365L308 584H253L195 300Z" />
<glyph unicode="B" horiz-adv-x="546" d="M53 0H328Q387 0 432 21T502 87T527 197Q527 251 508 288T461 346T406 375V381Q427 387 450 405T488 454T504 534Q504 611 458 655T336 700H53V0ZM176 111V308H303Q343 308 371 283T399 211Q399 162 374 137T303 111H176ZM176
406V593H302Q338 593 361 569T384 499Q384 455 361 431T302 406H176Z" />
<glyph unicode="C" horiz-adv-x="504" d="M27 350Q27 443 51 511T119 623T216 689T328 711Q384 711 420 700T473 673V555H455Q440 571 412 584T343 597Q288 597 246 569T179 485T154 350Q154 270 178 215T245 132T343 103Q384 103 412 116T455 145H473V27Q457
13 421 1T327 -11Q268 -11 214 10T118 76T52 189T27 350Z" />
<glyph unicode="D" horiz-adv-x="562" d="M241 700H53V0H241Q325 0 391 37T496 152T535 350Q535 471 496 548T391 662T241 700ZM239 116H176V584H239Q315 584 362 524T409 350Q409 239 363 178T239 116Z" />
<glyph unicode="E" horiz-adv-x="438" d="M410 700V588H176V395Q208 407 244 414T318 423T387 421V314L378 308Q354 315 320 315T248 311T176 292V112H410V0H53V700H410Z" />
<glyph unicode="F" horiz-adv-x="428" d="M407 700V588H176V374Q208 386 244 393T318 402T387 400V292L378 286Q354 294 320 294T248 290T176 270V0H53V700H407Z" />
<glyph unicode="G" horiz-adv-x="595" d="M27 350Q27 475 71 555T190 673T355 711Q404 711 443 701T509 677T549 649V524H531Q517 543 493 559T437 586T364 597Q299 597 252 569T179 486T154 351Q154 272 177 216T245 131T349 101Q380 101 402 109T435 129V303H241V411H549V71Q506
28 451 9T330 -11Q269 -11 215 10T118 76T52 188T27 350Z" />
<glyph unicode="H" horiz-adv-x="590" d="M411 700H535V0H411V295H178V0H53V700H178V405H411V700Z" />
<glyph unicode="I" horiz-adv-x="231" d="M53 700H176V0H53V700Z" />
<glyph unicode="J" horiz-adv-x="375" d="M330 183Q330 107 306 65T241 5T156 -12Q102 -12 70 2T18 34V155H35Q53 131 79 116T130 101Q164 101 185 123T207 198V700H330V183ZM22 700H275V589H22V700Z" />
<glyph unicode="K" horiz-adv-x="513" d="M53 0V700H178V414H203L374 700H503V679L301 355L503 21V0H374L203 294H178V0H53Z" />
<glyph unicode="L" horiz-adv-x="398" d="M53 700H176V112H382V0H53V700Z" />
<glyph unicode="M" horiz-adv-x="729" d="M53 0V700H246L360 215H369L481 700H674V0H554L558 538H547L416 0H311L181 538H169L174 0H53Z" />
<glyph unicode="N" horiz-adv-x="572" d="M398 700H518V0H375L181 476H169L174 0H53V700H196L391 219H403L398 700Z" />
<glyph unicode="O" horiz-adv-x="639" d="M27 350Q27 477 68 557T175 674T320 712Q398 712 464 675T572 557T613 350Q613 223 572 143T465 26T320 -12Q242 -12 176 25T68 143T27 350ZM154 350Q154 268 176 214T235 133T319 105Q365 105 403 132T464 214T487 350Q487
433 464 487T403 568T320 595Q273 595 236 568T176 486T154 350Z" />
<glyph unicode="P" horiz-adv-x="517" d="M53 0V700H290Q354 700 402 676T478 602T506 471Q506 392 477 339T398 260T290 234H176V0H53ZM176 340H274Q305 340 329 355T366 398T380 465Q380 504 367 531T329 573T274 588H176V340Z" />
<glyph unicode="Q" horiz-adv-x="641" d="M27 367Q27 486 67 562T175 675T319 712Q398 712 464 676T572 563T613 367Q613 251 572 175T465 60T320 22Q242 22 176 60T68 174T27 367ZM154 367Q154 289 176 237T236 159T320 133Q365 133 403 159T464 237T487 367Q487
445 464 495T403 570T319 595Q273 595 236 570T176 495T154 367ZM525 20V-46Q497 -62 465 -63T399 -59T331 -47T265 -42T203 -60L197 -58V8Q226 25 258 26T324 21T392 8T458 2T519 22L525 20ZM249 37H335V12H249V37Z" />
<glyph unicode="R" horiz-adv-x="536" d="M55 700H178V0H53L55 700ZM303 700Q363 700 409 677T483 606T510 488Q510 416 481 368T406 296T307 272H110V700H303ZM174 378H289Q317 378 338 390T370 426T382 483Q382 517 371 540T338 576T289 588H174V378ZM251 339L368
344L509 21V0H382L251 339Z" />
<glyph unicode="S" horiz-adv-x="473" d="M448 179Q448 119 422 77T350 11T243 -12Q194 -12 154 -1T84 27T40 54V175H57Q88 146 136 124T229 101Q255 101 276 109T310 134T323 174Q323 206 305 227T248 271L153 329Q123 347 94 371T45 431T25 520Q25 583 52 625T124
689T225 711Q271 711 307 702T372 678T417 646V525H401Q372 557 328 577T235 598Q199 598 175 581T150 530Q150 498 175 474T239 427L331 369Q365 348 391 322T433 262T448 179Z" />
<glyph unicode="T" horiz-adv-x="433" d="M419 700V587H279V0H156V587H13V700H419Z" />
<glyph unicode="U" horiz-adv-x="566" d="M521 239V700H397V253Q397 210 384 178T345 129T284 112Q247 112 222 129T183 178T169 253V700H45V239Q45 168 66 120T123 43T200 2T284 -11Q325 -11 367 1T443 42T499 119T521 239Z" />
<glyph unicode="V" horiz-adv-x="559" d="M10 700H138L253 120H306L422 700H549V678L395 1L164 0L10 678V700Z" />
<glyph unicode="W" horiz-adv-x="733" d="M13 700H139L213 161H226L301 700H432L507 161H522L594 700H720V678L610 0H436L373 484H361L298 0H123L13 678V700Z" />
<glyph unicode="X" horiz-adv-x="534" d="M10 0V21L160 360L20 679V700H146L260 422H276L388 700H514V679L380 360L524 21V0H398L276 284H260L136 0H10Z" />
<glyph unicode="Y" horiz-adv-x="540" d="M11 700H140L237 349H303L400 700H529V678L393 232H332V0H209V231H147L11 678V700Z" />
<glyph unicode="Z" horiz-adv-x="499" d="M471 580L173 130V120H471V0H29V120L329 570V580H29V700H471V580Z" />
<glyph unicode="[" horiz-adv-x="200" d="M55 803H90V-103H55V803ZM69 803H160V768H69V803ZM69 -68H160V-103H69V-68Z" />
<glyph unicode="\" horiz-adv-x="323" d="M49 782L307 -70V-82H274L16 770V782H49Z" />
<glyph unicode="]" horiz-adv-x="200" d="M145 803V-103H110V803H145ZM131 803V768H40V803H131ZM131 -68V-103H40V-68H131Z" />
<glyph unicode="^" horiz-adv-x="375" d="M348 447H309L192 666H183L65 447H27L163 700H211L348 447Z" />
<glyph unicode="_" horiz-adv-x="553" d="M12 -12H542V-47H12V-12ZM12 -12H542V-47H12V-12Z" />
<glyph unicode="`" horiz-adv-x="484" d="M102 858Q142 833 196 817T302 792T391 784V750Q364 750 326 752T245 762T162 780T93 808V856L102 858Z" />
<glyph unicode="a" horiz-adv-x="561" d="M10 0V22L164 700L396 699L551 22V0H423L384 192H177L138 0H10ZM195 300H365L308 584H253L195 300Z" />
<glyph unicode="b" horiz-adv-x="546" d="M53 0H328Q387 0 432 21T502 87T527 197Q527 251 508 288T461 346T406 375V381Q427 387 450 405T488 454T504 534Q504 611 458 655T336 700H53V0ZM176 111V308H303Q343 308 371 283T399 211Q399 162 374 137T303 111H176ZM176
406V593H302Q338 593 361 569T384 499Q384 455 361 431T302 406H176Z" />
<glyph unicode="c" horiz-adv-x="504" d="M27 350Q27 443 51 511T119 623T216 689T328 711Q384 711 420 700T473 673V555H455Q440 571 412 584T343 597Q288 597 246 569T179 485T154 350Q154 270 178 215T245 132T343 103Q384 103 412 116T455 145H473V27Q457
13 421 1T327 -11Q268 -11 214 10T118 76T52 189T27 350Z" />
<glyph unicode="d" horiz-adv-x="562" d="M241 700H53V0H241Q325 0 391 37T496 152T535 350Q535 471 496 548T391 662T241 700ZM239 116H176V584H239Q315 584 362 524T409 350Q409 239 363 178T239 116Z" />
<glyph unicode="e" horiz-adv-x="438" d="M410 700V588H176V395Q208 407 244 414T318 423T387 421V314L378 308Q354 315 320 315T248 311T176 292V112H410V0H53V700H410Z" />
<glyph unicode="f" horiz-adv-x="428" d="M407 700V588H176V374Q208 386 244 393T318 402T387 400V292L378 286Q354 294 320 294T248 290T176 270V0H53V700H407Z" />
<glyph unicode="g" horiz-adv-x="595" d="M27 350Q27 475 71 555T190 673T355 711Q404 711 443 701T509 677T549 649V524H531Q517 543 493 559T437 586T364 597Q299 597 252 569T179 486T154 351Q154 272 177 216T245 131T349 101Q380 101 402 109T435 129V303H241V411H549V71Q506
28 451 9T330 -11Q269 -11 215 10T118 76T52 188T27 350Z" />
<glyph unicode="h" horiz-adv-x="590" d="M411 700H535V0H411V295H178V0H53V700H178V405H411V700Z" />
<glyph unicode="i" horiz-adv-x="231" d="M53 700H176V0H53V700Z" />
<glyph unicode="j" horiz-adv-x="375" d="M330 183Q330 107 306 65T241 5T156 -12Q102 -12 70 2T18 34V155H35Q53 131 79 116T130 101Q164 101 185 123T207 198V700H330V183ZM22 700H275V589H22V700Z" />
<glyph unicode="k" horiz-adv-x="513" d="M53 0V700H178V414H203L374 700H503V679L301 355L503 21V0H374L203 294H178V0H53Z" />
<glyph unicode="l" horiz-adv-x="398" d="M53 700H176V112H382V0H53V700Z" />
<glyph unicode="m" horiz-adv-x="729" d="M53 0V700H246L360 215H369L481 700H674V0H554L558 538H547L416 0H311L181 538H169L174 0H53Z" />
<glyph unicode="n" horiz-adv-x="572" d="M398 700H518V0H375L181 476H169L174 0H53V700H196L391 219H403L398 700Z" />
<glyph unicode="o" horiz-adv-x="639" d="M27 350Q27 477 68 557T175 674T320 712Q398 712 464 675T572 557T613 350Q613 223 572 143T465 26T320 -12Q242 -12 176 25T68 143T27 350ZM154 350Q154 268 176 214T235 133T319 105Q365 105 403 132T464 214T487 350Q487
433 464 487T403 568T320 595Q273 595 236 568T176 486T154 350Z" />
<glyph unicode="p" horiz-adv-x="517" d="M53 0V700H290Q354 700 402 676T478 602T506 471Q506 392 477 339T398 260T290 234H176V0H53ZM176 340H274Q305 340 329 355T366 398T380 465Q380 504 367 531T329 573T274 588H176V340Z" />
<glyph unicode="q" horiz-adv-x="641" d="M27 367Q27 486 67 562T175 675T319 712Q398 712 464 676T572 563T613 367Q613 251 572 175T465 60T320 22Q242 22 176 60T68 174T27 367ZM154 367Q154 289 176 237T236 159T320 133Q365 133 403 159T464 237T487 367Q487
445 464 495T403 570T319 595Q273 595 236 570T176 495T154 367ZM525 20V-46Q497 -62 465 -63T399 -59T331 -47T265 -42T203 -60L197 -58V8Q226 25 258 26T324 21T392 8T458 2T519 22L525 20ZM249 37H335V12H249V37Z" />
<glyph unicode="r" horiz-adv-x="536" d="M55 700H178V0H53L55 700ZM303 700Q363 700 409 677T483 606T510 488Q510 416 481 368T406 296T307 272H110V700H303ZM174 378H289Q317 378 338 390T370 426T382 483Q382 517 371 540T338 576T289 588H174V378ZM251 339L368
344L509 21V0H382L251 339Z" />
<glyph unicode="s" horiz-adv-x="473" d="M448 179Q448 119 422 77T350 11T243 -12Q194 -12 154 -1T84 27T40 54V175H57Q88 146 136 124T229 101Q255 101 276 109T310 134T323 174Q323 206 305 227T248 271L153 329Q123 347 94 371T45 431T25 520Q25 583 52 625T124
689T225 711Q271 711 307 702T372 678T417 646V525H401Q372 557 328 577T235 598Q199 598 175 581T150 530Q150 498 175 474T239 427L331 369Q365 348 391 322T433 262T448 179Z" />
<glyph unicode="t" horiz-adv-x="433" d="M419 700V587H279V0H156V587H13V700H419Z" />
<glyph unicode="u" horiz-adv-x="566" d="M521 239V700H397V253Q397 210 384 178T345 129T284 112Q247 112 222 129T183 178T169 253V700H45V239Q45 168 66 120T123 43T200 2T284 -11Q325 -11 367 1T443 42T499 119T521 239Z" />
<glyph unicode="v" horiz-adv-x="559" d="M10 700H138L253 120H306L422 700H549V678L395 1L164 0L10 678V700Z" />
<glyph unicode="w" horiz-adv-x="733" d="M13 700H139L213 161H226L301 700H432L507 161H522L594 700H720V678L610 0H436L373 484H361L298 0H123L13 678V700Z" />
<glyph unicode="x" horiz-adv-x="534" d="M10 0V21L160 360L20 679V700H146L260 422H276L388 700H514V679L380 360L524 21V0H398L276 284H260L136 0H10Z" />
<glyph unicode="y" horiz-adv-x="540" d="M11 700H140L237 349H303L400 700H529V678L393 232H332V0H209V231H147L11 678V700Z" />
<glyph unicode="z" horiz-adv-x="499" d="M471 580L173 130V120H471V0H29V120L329 570V580H29V700H471V580Z" />
<glyph unicode="{" horiz-adv-x="215" d="M21 373Q44 381 54 403T65 459V704Q65 760 94 781T165 803H204V769H166Q136 769 118 754T99 704V469Q99 422 91 398T57 359V353Q82 339 90 315T99 243V-4Q99 -38 117 -53T166 -69H204V-103H165Q124 -103 94 -82T65 -4L67
253Q68 287 56 309T21 339V373Z" />
<glyph unicode="|" horiz-adv-x="145" d="M55 782H90V-82H55V782Z" />
<glyph unicode="}" horiz-adv-x="215" d="M195 373V339Q172 332 160 310T148 253L151 -4Q151 -60 122 -81T51 -103H12V-69H50Q80 -69 98 -54T116 -4V243Q116 290 124 314T158 353V359Q133 373 125 397T116 469V704Q116 738 98 753T50 769H12V803H51Q92 803 121
782T151 704V459Q151 425 161 403T195 373Z" />
<glyph unicode="~" horiz-adv-x="450" d="M33 322Q33 355 47 374T83 400T126 408Q158 408 184 396T233 367T278 339T323 326Q350 326 366 339T382 378H416Q416 345 402 327T367 300T324 292Q292 292 266 304T217 333T172 361T126 374Q99 374 84 361T68 322H33Z" />
<glyph unicode="&#xa0;" horiz-adv-x="253" />
<glyph unicode="&#xa1;" horiz-adv-x="237" d="M119 532Q151 532 171 511T192 458Q192 429 172 407T119 385Q86 385 66 407T45 458Q45 490 65 511T119 532ZM188 -180H51L71 343H168L188 -180Z" />
<glyph unicode="&#xa2;" horiz-adv-x="428" d="M260 701H295V573H260V701ZM260 128H295V0H260V128ZM27 349Q27 427 48 483T106 575T187 629T279 647Q326 647 355 637T399 615V499H384Q373 513 350 523T295 534Q260 534 228 515T175 455T154 349Q154 284 174 243T227
183T295 164Q326 164 349 175T384 199H399V83Q385 72 355 62T278 52Q231 52 186 69T105 123T48 216T27 349Z" />
<glyph unicode="&#xa3;" horiz-adv-x="455" d="M42 360V325H115Q120 309 123 292T126 256Q126 213 113 181T82 127T49 97V0H427V112H196V118Q206 128 219 145T242 194T252 274Q252 287 250 300T245 325H427V360H237Q230 387 220 410T203 457T196 508Q196 551 221
576T289 602Q341 602 369 581T416 539H426V659Q415 669 398 681T351 702T276 711Q235 711 198 699T132 664T87 605T70 522Q70 467 81 430T105 360H42Z" />
<glyph unicode="&#xa4;" horiz-adv-x="383" d="M191 223Q134 223 100 260T65 349Q65 402 99 439T191 476Q247 476 282 439T317 349Q317 297 282 260T191 223ZM191 269Q227 269 249 292T271 349Q271 383 249 406T191 430Q154 430 133 407T111 349Q111 315 132 292T191
269ZM68 504L130 442L99 411L37 474L68 504ZM284 288L346 226L316 194L253 257L284 288ZM346 474L284 411L253 442L316 504L346 474ZM130 257L68 195L37 226L99 288L130 257Z" />
<glyph unicode="&#xa5;" horiz-adv-x="551" d="M214 289H337V0H214V289ZM22 700H150L269 349H281L401 700H529V686L372 232L179 231L22 686V700ZM57 266H493V231H57V266ZM57 195H493V160H57V195Z" />
<glyph unicode="&#xa6;" horiz-adv-x="143" d="M54 310H89V-82H54V310ZM54 782H89V390H54V782Z" />
<glyph unicode="&#xa7;" horiz-adv-x="371" d="M54 584Q54 557 63 537T87 502T116 476V474Q78 465 53 435T27 356Q27 320 41 294T77 251T121 220L172 191Q206 172 219 158T233 122Q233 98 214 84T167 70Q136 70 101 85T44 120H37V38Q47 31 67 21T115 2T177 -6Q240
-6 278 29T317 127Q317 160 304 184T261 232V235Q299 248 321 278T344 355Q344 402 320 432T249 491L201 520Q174 537 157 552T139 590Q139 612 156 624T197 636Q219 636 242 627T284 606T308 587H315V668Q300 681 270 696T193 712Q135 712 95 680T54 584ZM232
391Q243 382 251 368T260 333Q260 306 242 294T200 282Q187 282 173 289T141 310Q127 320 117 333T107 368Q107 392 123 405T163 419Q185 420 200 414T232 391Z" />
<glyph unicode="&#xa8;" horiz-adv-x="563" d="M205 748Q184 748 168 762T152 801Q152 823 168 838T205 853Q226 853 242 838T258 801Q258 777 242 763T205 748ZM358 748Q337 748 321 762T305 801Q305 823 321 838T358 853Q378 853 394 838T410 801Q410 777 394
763T358 748Z" />
<glyph unicode="&#xa9;" horiz-adv-x="688" d="M34 350Q34 445 59 513T129 626T228 691T344 712Q404 712 459 691T559 626T628 514T654 350Q654 255 629 187T559 74T460 9T344 -12Q284 -12 229 9T129 74T60 186T34 350ZM66 350Q66 237 105 164T207 56T343 20Q397
20 447 39T536 100T599 203T622 350Q622 435 599 497T536 600T446 660T343 680Q270 680 207 644T105 535T66 350ZM131 349Q131 440 163 498T245 585T350 614Q391 614 417 603T456 580V488H448Q437 501 415 513T362 525Q324 525 294 505T247 446T229 349Q229 292
246 253T294 193T362 173Q392 173 414 186T448 210H456V118Q444 107 418 96T349 84Q293 84 244 112T163 199T131 349Z" />
<glyph unicode="&#xaa;" horiz-adv-x="234" d="M15 436V444L72 700H160L218 444V436H170L155 508H78L63 436H15ZM84 549H148L127 656H106L84 549Z" />
<glyph unicode="&#xab;" horiz-adv-x="381" d="M189 559H222V547L62 355V345L222 153V141H189L30 334V366L189 559ZM311 559H345V547L185 355V345L345 153V141H311L152 334V366L311 559Z" />
<glyph unicode="&#xac;" horiz-adv-x="464" d="M30 364H425V330H30V364ZM390 353H425V127H390V353Z" />
<glyph unicode="&#xae;" horiz-adv-x="406" d="M203 344Q149 344 109 368T46 433T23 524Q23 574 45 615T108 680T203 705Q256 705 296 681T359 615T382 524Q382 474 359 433T296 368T203 344ZM203 375Q247 375 280 395T332 448T352 524Q352 566 333 600T281 654T203
674Q158 674 125 654T73 600T55 524Q55 461 95 418T203 375ZM139 633H180V420H138L139 633ZM217 633Q244 633 262 617T280 570Q280 538 261 521T217 504H155V633H217ZM179 541H213Q224 541 230 548T237 568Q237 580 231 587T213 594H179V541ZM196 525H237L280 425V420H237L196
525Z" />
<glyph unicode="&#xaf;" horiz-adv-x="434" d="M133 796H301V752H133V796Z" />
<glyph unicode="&#xb0;" horiz-adv-x="282" d="M141 473Q87 473 55 508T22 592Q22 642 54 677T141 712Q176 712 203 696T245 653T260 592Q260 542 227 508T141 473ZM141 517Q174 517 195 539T216 592Q216 624 195 646T141 668Q107 668 87 646T66 592Q66 561 86
539T141 517Z" />
<glyph unicode="&#xb1;" horiz-adv-x="485" d="M49 425H444V383H49V425ZM268 572V237H226V572H268ZM41 172H436V137H41V172Z" />
<glyph unicode="&#xb2;" horiz-adv-x="288" d="M270 309Q270 340 260 362T231 399T190 420T141 427Q97 427 66 414T19 388V315H29Q37 323 53 333T88 351T129 359Q159 359 176 344T194 302Q194 289 191 276T179 246T150 206T98 148T17 67V0H267V72H122V78L188 146Q215
177 233 203T261 254T270 309Z" />
<glyph unicode="&#xb3;" horiz-adv-x="288" d="M114 192H79V241L175 342V348H24V420H266V353L161 242V237Q192 235 217 222T258 185T273 123Q273 79 254 51T204 8T137 -7Q103 -7 80 -1T41 15T16 33V106H22Q27 100 42 90T78 70T125 61Q155 61 175 77T196 126Q196
161 174 176T114 192Z" />
<glyph unicode="&#xb4;" horiz-adv-x="484" d="M382 858L391 856V808Q362 791 322 780T239 762T158 753T93 750V784Q129 784 181 792T288 816T382 858Z" />
<glyph unicode="&#xb6;" horiz-adv-x="362" d="M233 0H190V389H162Q126 389 94 407T41 460T21 547Q21 627 61 663T162 700H233V0ZM273 700H315V0H273V700Z" />
<glyph unicode="&#xb7;" horiz-adv-x="190" d="M95 279Q62 279 42 300T22 352Q22 383 42 404T95 426Q128 426 148 405T168 352Q168 322 148 301T95 279Z" />
<glyph unicode="&#xb8;" horiz-adv-x="369" d="M185 -39Q211 -39 230 -57T249 -104Q249 -138 228 -155T177 -172Q153 -172 141 -165T119 -151V-115H127Q134 -122 145 -127T170 -133Q184 -133 192 -124T201 -101Q201 -87 193 -78T170 -68Q162 -68 156 -71T145 -77L121
-55L162 0H211L178 -39H185Z" />
<glyph unicode="&#xb9;" horiz-adv-x="200" d="M94 0V340L24 298H17V375L94 420H168V0H94Z" />
<glyph unicode="&#xba;" horiz-adv-x="291" d="M31 570Q31 620 47 651T89 697T146 712Q176 712 202 697T245 651T261 570Q261 520 245 489T203 442T146 427Q115 427 89 442T47 488T31 570ZM80 570Q80 537 89 516T112 484T146 473Q164 473 179 484T203 516T212
570Q212 602 203 623T178 655T146 666Q127 666 113 656T89 624T80 570Z" />
<glyph unicode="&#xbb;" horiz-adv-x="381" d="M192 559L351 366V334L192 141H159V153L319 345V355L159 547V559H192ZM70 559L229 366V334L70 141H37V153L197 345V355L37 547V559H70Z" />
<glyph unicode="&#xbc;" horiz-adv-x="616" d="M107 336V631L46 595H39V661L106 700H171V336H107ZM497 700H520V688L85 0H62V12L497 700ZM480 0V281L388 146V140H582V84H325V146L472 364H544V0H480Z" />
<glyph unicode="&#xbd;" horiz-adv-x="649" d="M117 336V631L56 595H49V661L116 700H181V336H117ZM498 700H521V688L86 0H63V12L498 700ZM602 268Q602 295 593 314T568 346T532 364T491 370Q452 370 425 359T385 336V272H394Q401 280 414 288T445 303T480 310Q506
310 521 298T537 261Q537 250 534 239T523 213T498 178T454 129T383 58V0H600V62H474V67L531 126Q555 153 571 175T594 220T602 268Z" />
<glyph unicode="&#xbe;" horiz-adv-x="660" d="M135 502H105V544L188 632V637H57V700H267V642L176 545V541Q203 539 225 528T260 496T273 443Q273 405 257 380T214 343T155 330Q126 330 106 335T72 349T50 365V428H56Q60 422 73 414T104 397T145 389Q171 389 188
403T206 445Q206 475 187 488T135 502ZM549 700H572V688L137 0H114V12L549 700ZM511 0V281L419 146V140H613V84H356V146L503 364H575V0H511Z" />
<glyph unicode="&#xbf;" horiz-adv-x="449" d="M187 296V346H310V277Q310 241 303 210T279 152T228 99Q210 84 194 70T168 39T160 -3Q161 -27 173 -42T206 -66T250 -75Q275 -75 300 -67T347 -46T386 -22T409 -2H419V-123Q405 -136 380 -151T319 -177T238 -188Q180
-188 133 -169T57 -110T29 -8Q29 28 41 56T70 108T106 148T140 177Q162 197 172 215T184 254T187 296ZM247 535Q280 535 300 514T320 462Q320 432 300 410T247 388Q214 388 194 410T173 462Q173 493 193 514T247 535Z" />
<glyph unicode="&#xc0;" horiz-adv-x="561" d="M10 0V22L164 700L396 699L551 22V0H423L384 192H177L138 0H10ZM195 300H365L308 584H253L195 300ZM137 858Q177 833 231 817T337 792T426 784V750Q399 750 361 752T280 762T197 780T128 808V856L137 858Z" />
<glyph unicode="&#xc1;" horiz-adv-x="561" d="M10 0V22L164 700L396 699L551 22V0H423L384 192H177L138 0H10ZM195 300H365L308 584H253L195 300ZM424 858L433 856V808Q404 791 364 780T281 762T200 753T135 750V784Q171 784 223 792T330 816T424 858Z" />
<glyph unicode="&#xc2;" horiz-adv-x="561" d="M10 0V22L164 700L396 699L551 22V0H423L384 192H177L138 0H10ZM195 300H365L308 584H253L195 300ZM504 860H568Q591 824 627 803T714 782V747Q666 747 618 761T540 811H532Q503 775 455 761T357 747V782Q409 782
445 803T504 860Z" />
<glyph unicode="&#xc3;" horiz-adv-x="561" d="M10 0V22L164 700L396 699L551 22V0H423L384 192H177L138 0H10ZM195 300H365L308 584H253L195 300ZM280 758Q225 773 189 770T130 750H123V784Q135 795 155 804T207 816T281 808Q336 795 372 795T430 811L437 810V777Q425
766 405 757T355 748T280 758Z" />
<glyph unicode="&#xc4;" horiz-adv-x="561" d="M10 0V22L164 700L396 699L551 22V0H423L384 192H177L138 0H10ZM195 300H365L308 584H253L195 300ZM460 748Q439 748 423 762T407 801Q407 823 423 838T460 853Q481 853 497 838T513 801Q513 777 497 763T460 748ZM613
748Q592 748 576 762T560 801Q560 823 576 838T613 853Q633 853 649 838T665 801Q665 777 649 763T613 748Z" />
<glyph unicode="&#xc5;" horiz-adv-x="561" d="M10 0V22L164 700L396 699L551 22V0H423L384 192H177L138 0H10ZM195 300H365L308 584H253L195 300ZM280 744Q251 744 229 765T207 818Q207 851 229 871T280 891Q309 891 331 871T353 818Q353 786 331 765T280 744ZM245
817Q245 803 255 794T280 784Q294 784 304 793T315 817Q315 832 305 842T280 852Q266 852 256 842T245 817Z" />
<glyph unicode="&#xc6;" horiz-adv-x="706" d="M10 0V21L164 700L397 699V584H250L138 0H10ZM132 313H405V205H132V313ZM678 700V588H444V395Q476 407 513 414T586 423T655 421V314L646 308Q622 315 588 315T516 311T444 292V112H678V0H321V700H678Z" />
<glyph unicode="&#xc7;" horiz-adv-x="504" d="M27 350Q27 443 51 511T119 623T216 689T328 711Q384 711 420 700T473 673V555H455Q440 571 412 584T343 597Q288 597 246 569T179 485T154 350Q154 270 178 215T245 132T343 103Q384 103 412 116T455 145H473V27Q457
13 421 1T327 -11Q268 -11 214 10T118 76T52 189T27 350ZM327 -39Q353 -39 372 -57T391 -104Q391 -138 370 -155T319 -172Q295 -172 283 -165T261 -151V-115H269Q276 -122 287 -127T312 -133Q326 -133 334 -124T343 -101Q343 -87 335 -78T312 -68Q304 -68 298 -71T287
-77L263 -55L304 0H353L320 -39H327Z" />
<glyph unicode="&#xc8;" horiz-adv-x="438" d="M410 700V588H176V395Q208 407 244 414T318 423T387 421V314L378 308Q354 315 320 315T248 311T176 292V112H410V0H53V700H410ZM345 858Q385 833 439 817T545 792T634 784V750Q607 750 569 752T488 762T405 780T336
808V856L345 858Z" />
<glyph unicode="&#xc9;" horiz-adv-x="438" d="M410 700V588H176V395Q208 407 244 414T318 423T387 421V314L378 308Q354 315 320 315T248 311T176 292V112H410V0H53V700H410ZM631 858L640 856V808Q611 791 571 780T488 762T407 753T342 750V784Q378 784 430 792T537
816T631 858Z" />
<glyph unicode="&#xca;" horiz-adv-x="438" d="M410 700V588H176V395Q208 407 244 414T318 423T387 421V314L378 308Q354 315 320 315T248 311T176 292V112H410V0H53V700H410ZM456 860H520Q543 824 579 803T666 782V747Q618 747 570 761T492 811H484Q455 775 407
761T309 747V782Q361 782 397 803T456 860Z" />
<glyph unicode="&#xcb;" horiz-adv-x="438" d="M410 700V588H176V395Q208 407 244 414T318 423T387 421V314L378 308Q354 315 320 315T248 311T176 292V112H410V0H53V700H410ZM412 748Q391 748 375 762T359 801Q359 823 375 838T412 853Q433 853 449 838T465 801Q465
777 449 763T412 748ZM565 748Q544 748 528 762T512 801Q512 823 528 838T565 853Q585 853 601 838T617 801Q617 777 601 763T565 748Z" />
<glyph unicode="&#xcc;" horiz-adv-x="231" d="M53 700H176V0H53V700ZM-29 858Q11 833 65 817T171 792T260 784V750Q233 750 195 752T114 762T31 780T-38 808V856L-29 858Z" />
<glyph unicode="&#xcd;" horiz-adv-x="231" d="M53 700H176V0H53V700ZM514 858L523 856V808Q494 791 454 780T371 762T290 753T225 750V784Q261 784 313 792T420 816T514 858Z" />
<glyph unicode="&#xce;" horiz-adv-x="231" d="M53 700H176V0H53V700ZM83 860H147Q170 824 206 803T293 782V747Q245 747 197 761T119 811H111Q82 775 34 761T-64 747V782Q-12 782 24 803T83 860Z" />
<glyph unicode="&#xcf;" horiz-adv-x="231" d="M53 700H176V0H53V700ZM38 748Q17 748 1 762T-15 801Q-15 823 1 838T38 853Q59 853 75 838T91 801Q91 777 75 763T38 748ZM191 748Q170 748 154 762T138 801Q138 823 154 838T191 853Q211 853 227 838T243 801Q243
777 227 763T191 748Z" />
<glyph unicode="&#xd0;" horiz-adv-x="587" d="M291 325V373H202V584H265Q340 584 387 524T434 350Q434 239 388 178T265 116H202V325H291ZM20 325H79V0H267Q350 0 416 37T521 152T560 350Q560 471 522 548T417 662T267 700H79V373H20V325Z" />
<glyph unicode="&#xd1;" horiz-adv-x="572" d="M398 700H518V0H375L181 476H169L174 0H53V700H196L391 219H403L398 700ZM286 758Q231 773 195 770T136 750H129V784Q141 795 161 804T213 816T287 808Q342 795 378 795T436 811L443 810V777Q431 766 411 757T361
748T286 758Z" />
<glyph unicode="&#xd2;" horiz-adv-x="639" d="M27 350Q27 477 68 557T175 674T320 712Q398 712 464 675T572 557T613 350Q613 223 572 143T465 26T320 -12Q242 -12 176 25T68 143T27 350ZM154 350Q154 268 176 214T235 133T319 105Q365 105 403 132T464 214T487
350Q487 433 464 487T403 568T320 595Q273 595 236 568T176 486T154 350ZM176 858Q216 833 270 817T376 792T465 784V750Q438 750 400 752T319 762T236 780T167 808V856L176 858Z" />
<glyph unicode="&#xd3;" horiz-adv-x="639" d="M27 350Q27 477 68 557T175 674T320 712Q398 712 464 675T572 557T613 350Q613 223 572 143T465 26T320 -12Q242 -12 176 25T68 143T27 350ZM154 350Q154 268 176 214T235 133T319 105Q365 105 403 132T464 214T487
350Q487 433 464 487T403 568T320 595Q273 595 236 568T176 486T154 350ZM463 858L472 856V808Q443 791 403 780T320 762T239 753T174 750V784Q210 784 262 792T369 816T463 858Z" />
<glyph unicode="&#xd4;" horiz-adv-x="639" d="M27 350Q27 477 68 557T175 674T320 712Q398 712 464 675T572 557T613 350Q613 223 572 143T465 26T320 -12Q242 -12 176 25T68 143T27 350ZM154 350Q154 268 176 214T235 133T319 105Q365 105 403 132T464 214T487
350Q487 433 464 487T403 568T320 595Q273 595 236 568T176 486T154 350ZM288 860H352Q375 824 411 803T498 782V747Q450 747 402 761T324 811H316Q287 775 239 761T141 747V782Q193 782 229 803T288 860Z" />
<glyph unicode="&#xd5;" horiz-adv-x="639" d="M27 350Q27 477 68 557T175 674T320 712Q398 712 464 675T572 557T613 350Q613 223 572 143T465 26T320 -12Q242 -12 176 25T68 143T27 350ZM154 350Q154 268 176 214T235 133T319 105Q365 105 403 132T464 214T487
350Q487 433 464 487T403 568T320 595Q273 595 236 568T176 486T154 350ZM320 758Q265 773 229 770T170 750H163V784Q175 795 195 804T247 816T321 808Q376 795 412 795T470 811L477 810V777Q465 766 445 757T395 748T320 758Z" />
<glyph unicode="&#xd6;" horiz-adv-x="639" d="M27 350Q27 477 68 557T175 674T320 712Q398 712 464 675T572 557T613 350Q613 223 572 143T465 26T320 -12Q242 -12 176 25T68 143T27 350ZM154 350Q154 268 176 214T235 133T319 105Q365 105 403 132T464 214T487
350Q487 433 464 487T403 568T320 595Q273 595 236 568T176 486T154 350ZM243 748Q222 748 206 762T190 801Q190 823 206 838T243 853Q264 853 280 838T296 801Q296 777 280 763T243 748ZM396 748Q375 748 359 762T343 801Q343 823 359 838T396 853Q416 853 432
838T448 801Q448 777 432 763T396 748Z" />
<glyph unicode="&#xd7;" horiz-adv-x="383" d="M63 497L342 218L319 193L39 473L63 497ZM344 473L64 193L40 218L319 497L344 473Z" />
<glyph unicode="&#xd8;" horiz-adv-x="639" d="M27 350Q27 477 68 557T175 674T320 712Q398 712 464 675T572 557T613 350Q613 223 572 143T465 26T320 -12Q242 -12 176 25T68 143T27 350ZM154 350Q154 268 176 214T235 133T319 105Q365 105 403 132T464 214T487
350Q487 433 464 487T403 568T320 595Q273 595 236 568T176 486T154 350ZM430 782H462V770L204 -82H172V-70L430 782Z" />
<glyph unicode="&#xd9;" horiz-adv-x="566" d="M521 239V700H397V253Q397 210 384 178T345 129T284 112Q247 112 222 129T183 178T169 253V700H45V239Q45 168 66 120T123 43T200 2T284 -11Q325 -11 367 1T443 42T499 119T521 239ZM140 858Q180 833 234 817T340
792T429 784V750Q402 750 364 752T283 762T200 780T131 808V856L140 858Z" />
<glyph unicode="&#xda;" horiz-adv-x="566" d="M521 239V700H397V253Q397 210 384 178T345 129T284 112Q247 112 222 129T183 178T169 253V700H45V239Q45 168 66 120T123 43T200 2T284 -11Q325 -11 367 1T443 42T499 119T521 239ZM426 858L435 856V808Q406 791
366 780T283 762T202 753T137 750V784Q173 784 225 792T332 816T426 858Z" />
<glyph unicode="&#xdb;" horiz-adv-x="566" d="M521 239V700H397V253Q397 210 384 178T345 129T284 112Q247 112 222 129T183 178T169 253V700H45V239Q45 168 66 120T123 43T200 2T284 -11Q325 -11 367 1T443 42T499 119T521 239ZM507 860H571Q594 824 630 803T717
782V747Q669 747 621 761T543 811H535Q506 775 458 761T360 747V782Q412 782 448 803T507 860Z" />
<glyph unicode="&#xdc;" horiz-adv-x="566" d="M521 239V700H397V253Q397 210 384 178T345 129T284 112Q247 112 222 129T183 178T169 253V700H45V239Q45 168 66 120T123 43T200 2T284 -11Q325 -11 367 1T443 42T499 119T521 239ZM207 748Q186 748 170 762T154
801Q154 823 170 838T207 853Q228 853 244 838T260 801Q260 777 244 763T207 748ZM360 748Q339 748 323 762T307 801Q307 823 323 838T360 853Q380 853 396 838T412 801Q412 777 396 763T360 748Z" />
<glyph unicode="&#xdd;" horiz-adv-x="540" d="M11 700H140L237 349H303L400 700H529V678L393 232H332V0H209V231H147L11 678V700ZM413 858L422 856V808Q393 791 353 780T270 762T189 753T124 750V784Q160 784 212 792T319 816T413 858Z" />
<glyph unicode="&#xde;" horiz-adv-x="520" d="M53 0V700H176V624H293Q357 624 405 600T482 525T510 392Q510 311 481 258T402 178T293 151H176V0H53ZM176 258H277Q309 258 333 272T370 316T384 386Q384 426 371 454T333 497T277 512H176V258Z" />
<glyph unicode="&#xdf;" horiz-adv-x="534" d="M216 0V111H291Q336 111 361 136T387 211Q387 257 360 282T291 308H216V406H290Q327 406 349 430T372 499Q372 544 345 568T271 593Q223 593 196 566T168 480V0H45V481Q45 548 69 599T143 679T271 708Q339 708 389
687T466 626T493 534Q493 486 477 454T437 405T393 381V375Q421 368 449 347T497 289T516 197Q516 92 460 46T310 0H216Z" />
<glyph unicode="&#xe0;" horiz-adv-x="561" d="M10 0V22L164 700L396 699L551 22V0H423L384 192H177L138 0H10ZM195 300H365L308 584H253L195 300ZM137 858Q177 833 231 817T337 792T426 784V750Q399 750 361 752T280 762T197 780T128 808V856L137 858Z" />
<glyph unicode="&#xe1;" horiz-adv-x="561" d="M10 0V22L164 700L396 699L551 22V0H423L384 192H177L138 0H10ZM195 300H365L308 584H253L195 300ZM424 858L433 856V808Q404 791 364 780T281 762T200 753T135 750V784Q171 784 223 792T330 816T424 858Z" />
<glyph unicode="&#xe2;" horiz-adv-x="561" d="M10 0V22L164 700L396 699L551 22V0H423L384 192H177L138 0H10ZM195 300H365L308 584H253L195 300ZM504 860H568Q591 824 627 803T714 782V747Q666 747 618 761T540 811H532Q503 775 455 761T357 747V782Q409 782
445 803T504 860Z" />
<glyph unicode="&#xe3;" horiz-adv-x="561" d="M10 0V22L164 700L396 699L551 22V0H423L384 192H177L138 0H10ZM195 300H365L308 584H253L195 300ZM280 758Q225 773 189 770T130 750H123V784Q135 795 155 804T207 816T281 808Q336 795 372 795T430 811L437 810V777Q425
766 405 757T355 748T280 758Z" />
<glyph unicode="&#xe4;" horiz-adv-x="561" d="M10 0V22L164 700L396 699L551 22V0H423L384 192H177L138 0H10ZM195 300H365L308 584H253L195 300ZM460 748Q439 748 423 762T407 801Q407 823 423 838T460 853Q481 853 497 838T513 801Q513 777 497 763T460 748ZM613
748Q592 748 576 762T560 801Q560 823 576 838T613 853Q633 853 649 838T665 801Q665 777 649 763T613 748Z" />
<glyph unicode="&#xe5;" horiz-adv-x="561" d="M10 0V22L164 700L396 699L551 22V0H423L384 192H177L138 0H10ZM195 300H365L308 584H253L195 300ZM280 744Q251 744 229 765T207 818Q207 851 229 871T280 891Q309 891 331 871T353 818Q353 786 331 765T280 744ZM245
817Q245 803 255 794T280 784Q294 784 304 793T315 817Q315 832 305 842T280 852Q266 852 256 842T245 817Z" />
<glyph unicode="&#xe6;" horiz-adv-x="706" d="M10 0V21L164 700L397 699V584H250L138 0H10ZM132 313H405V205H132V313ZM678 700V588H444V395Q476 407 513 414T586 423T655 421V314L646 308Q622 315 588 315T516 311T444 292V112H678V0H321V700H678Z" />
<glyph unicode="&#xe7;" horiz-adv-x="504" d="M27 350Q27 443 51 511T119 623T216 689T328 711Q384 711 420 700T473 673V555H455Q440 571 412 584T343 597Q288 597 246 569T179 485T154 350Q154 270 178 215T245 132T343 103Q384 103 412 116T455 145H473V27Q457
13 421 1T327 -11Q268 -11 214 10T118 76T52 189T27 350ZM327 -39Q353 -39 372 -57T391 -104Q391 -138 370 -155T319 -172Q295 -172 283 -165T261 -151V-115H269Q276 -122 287 -127T312 -133Q326 -133 334 -124T343 -101Q343 -87 335 -78T312 -68Q304 -68 298 -71T287
-77L263 -55L304 0H353L320 -39H327Z" />
<glyph unicode="&#xe8;" horiz-adv-x="438" d="M410 700V588H176V395Q208 407 244 414T318 423T387 421V314L378 308Q354 315 320 315T248 311T176 292V112H410V0H53V700H410ZM345 858Q385 833 439 817T545 792T634 784V750Q607 750 569 752T488 762T405 780T336
808V856L345 858Z" />
<glyph unicode="&#xe9;" horiz-adv-x="438" d="M410 700V588H176V395Q208 407 244 414T318 423T387 421V314L378 308Q354 315 320 315T248 311T176 292V112H410V0H53V700H410ZM631 858L640 856V808Q611 791 571 780T488 762T407 753T342 750V784Q378 784 430 792T537
816T631 858Z" />
<glyph unicode="&#xea;" horiz-adv-x="438" d="M410 700V588H176V395Q208 407 244 414T318 423T387 421V314L378 308Q354 315 320 315T248 311T176 292V112H410V0H53V700H410ZM456 860H520Q543 824 579 803T666 782V747Q618 747 570 761T492 811H484Q455 775 407
761T309 747V782Q361 782 397 803T456 860Z" />
<glyph unicode="&#xeb;" horiz-adv-x="438" d="M410 700V588H176V395Q208 407 244 414T318 423T387 421V314L378 308Q354 315 320 315T248 311T176 292V112H410V0H53V700H410ZM412 748Q391 748 375 762T359 801Q359 823 375 838T412 853Q433 853 449 838T465 801Q465
777 449 763T412 748ZM565 748Q544 748 528 762T512 801Q512 823 528 838T565 853Q585 853 601 838T617 801Q617 777 601 763T565 748Z" />
<glyph unicode="&#xec;" horiz-adv-x="231" d="M53 700H176V0H53V700ZM-29 858Q11 833 65 817T171 792T260 784V750Q233 750 195 752T114 762T31 780T-38 808V856L-29 858Z" />
<glyph unicode="&#xed;" horiz-adv-x="231" d="M53 700H176V0H53V700ZM514 858L523 856V808Q494 791 454 780T371 762T290 753T225 750V784Q261 784 313 792T420 816T514 858Z" />
<glyph unicode="&#xee;" horiz-adv-x="231" d="M53 700H176V0H53V700ZM83 860H147Q170 824 206 803T293 782V747Q245 747 197 761T119 811H111Q82 775 34 761T-64 747V782Q-12 782 24 803T83 860Z" />
<glyph unicode="&#xef;" horiz-adv-x="231" d="M53 700H176V0H53V700ZM38 748Q17 748 1 762T-15 801Q-15 823 1 838T38 853Q59 853 75 838T91 801Q91 777 75 763T38 748ZM191 748Q170 748 154 762T138 801Q138 823 154 838T191 853Q211 853 227 838T243 801Q243
777 227 763T191 748Z" />
<glyph unicode="&#xf0;" horiz-adv-x="587" d="M291 325V373H202V584H265Q340 584 387 524T434 350Q434 239 388 178T265 116H202V325H291ZM20 325H79V0H267Q350 0 416 37T521 152T560 350Q560 471 522 548T417 662T267 700H79V373H20V325Z" />
<glyph unicode="&#xf1;" horiz-adv-x="572" d="M398 700H518V0H375L181 476H169L174 0H53V700H196L391 219H403L398 700ZM286 758Q231 773 195 770T136 750H129V784Q141 795 161 804T213 816T287 808Q342 795 378 795T436 811L443 810V777Q431 766 411 757T361
748T286 758Z" />
<glyph unicode="&#xf2;" horiz-adv-x="639" d="M27 350Q27 477 68 557T175 674T320 712Q398 712 464 675T572 557T613 350Q613 223 572 143T465 26T320 -12Q242 -12 176 25T68 143T27 350ZM154 350Q154 268 176 214T235 133T319 105Q365 105 403 132T464 214T487
350Q487 433 464 487T403 568T320 595Q273 595 236 568T176 486T154 350ZM176 858Q216 833 270 817T376 792T465 784V750Q438 750 400 752T319 762T236 780T167 808V856L176 858Z" />
<glyph unicode="&#xf3;" horiz-adv-x="639" d="M27 350Q27 477 68 557T175 674T320 712Q398 712 464 675T572 557T613 350Q613 223 572 143T465 26T320 -12Q242 -12 176 25T68 143T27 350ZM154 350Q154 268 176 214T235 133T319 105Q365 105 403 132T464 214T487
350Q487 433 464 487T403 568T320 595Q273 595 236 568T176 486T154 350ZM463 858L472 856V808Q443 791 403 780T320 762T239 753T174 750V784Q210 784 262 792T369 816T463 858Z" />
<glyph unicode="&#xf4;" horiz-adv-x="639" d="M27 350Q27 477 68 557T175 674T320 712Q398 712 464 675T572 557T613 350Q613 223 572 143T465 26T320 -12Q242 -12 176 25T68 143T27 350ZM154 350Q154 268 176 214T235 133T319 105Q365 105 403 132T464 214T487
350Q487 433 464 487T403 568T320 595Q273 595 236 568T176 486T154 350ZM288 860H352Q375 824 411 803T498 782V747Q450 747 402 761T324 811H316Q287 775 239 761T141 747V782Q193 782 229 803T288 860Z" />
<glyph unicode="&#xf5;" horiz-adv-x="639" d="M27 350Q27 477 68 557T175 674T320 712Q398 712 464 675T572 557T613 350Q613 223 572 143T465 26T320 -12Q242 -12 176 25T68 143T27 350ZM154 350Q154 268 176 214T235 133T319 105Q365 105 403 132T464 214T487
350Q487 433 464 487T403 568T320 595Q273 595 236 568T176 486T154 350ZM320 758Q265 773 229 770T170 750H163V784Q175 795 195 804T247 816T321 808Q376 795 412 795T470 811L477 810V777Q465 766 445 757T395 748T320 758Z" />
<glyph unicode="&#xf6;" horiz-adv-x="639" d="M27 350Q27 477 68 557T175 674T320 712Q398 712 464 675T572 557T613 350Q613 223 572 143T465 26T320 -12Q242 -12 176 25T68 143T27 350ZM154 350Q154 268 176 214T235 133T319 105Q365 105 403 132T464 214T487
350Q487 433 464 487T403 568T320 595Q273 595 236 568T176 486T154 350ZM243 748Q222 748 206 762T190 801Q190 823 206 838T243 853Q264 853 280 838T296 801Q296 777 280 763T243 748ZM396 748Q375 748 359 762T343 801Q343 823 359 838T396 853Q416 853 432
838T448 801Q448 777 432 763T396 748Z" />
<glyph unicode="&#xf7;" horiz-adv-x="475" d="M40 363H435V327H40V363ZM40 363H435V327H40V363ZM284 479Q284 458 271 446T238 433Q218 433 205 445T192 479Q192 496 205 510T238 524Q257 524 270 510T284 479ZM284 214Q284 194 271 181T238 168Q218 168 205
181T192 214Q192 232 205 246T238 260Q257 260 270 246T284 214Z" />
<glyph unicode="&#xf8;" horiz-adv-x="639" d="M27 350Q27 477 68 557T175 674T320 712Q398 712 464 675T572 557T613 350Q613 223 572 143T465 26T320 -12Q242 -12 176 25T68 143T27 350ZM154 350Q154 268 176 214T235 133T319 105Q365 105 403 132T464 214T487
350Q487 433 464 487T403 568T320 595Q273 595 236 568T176 486T154 350ZM430 782H462V770L204 -82H172V-70L430 782Z" />
<glyph unicode="&#xf9;" horiz-adv-x="566" d="M521 239V700H397V253Q397 210 384 178T345 129T284 112Q247 112 222 129T183 178T169 253V700H45V239Q45 168 66 120T123 43T200 2T284 -11Q325 -11 367 1T443 42T499 119T521 239ZM140 858Q180 833 234 817T340
792T429 784V750Q402 750 364 752T283 762T200 780T131 808V856L140 858Z" />
<glyph unicode="&#xfa;" horiz-adv-x="566" d="M521 239V700H397V253Q397 210 384 178T345 129T284 112Q247 112 222 129T183 178T169 253V700H45V239Q45 168 66 120T123 43T200 2T284 -11Q325 -11 367 1T443 42T499 119T521 239ZM426 858L435 856V808Q406 791
366 780T283 762T202 753T137 750V784Q173 784 225 792T332 816T426 858Z" />
<glyph unicode="&#xfb;" horiz-adv-x="566" d="M521 239V700H397V253Q397 210 384 178T345 129T284 112Q247 112 222 129T183 178T169 253V700H45V239Q45 168 66 120T123 43T200 2T284 -11Q325 -11 367 1T443 42T499 119T521 239ZM507 860H571Q594 824 630 803T717
782V747Q669 747 621 761T543 811H535Q506 775 458 761T360 747V782Q412 782 448 803T507 860Z" />
<glyph unicode="&#xfc;" horiz-adv-x="566" d="M521 239V700H397V253Q397 210 384 178T345 129T284 112Q247 112 222 129T183 178T169 253V700H45V239Q45 168 66 120T123 43T200 2T284 -11Q325 -11 367 1T443 42T499 119T521 239ZM207 748Q186 748 170 762T154
801Q154 823 170 838T207 853Q228 853 244 838T260 801Q260 777 244 763T207 748ZM360 748Q339 748 323 762T307 801Q307 823 323 838T360 853Q380 853 396 838T412 801Q412 777 396 763T360 748Z" />
<glyph unicode="&#xfd;" horiz-adv-x="540" d="M11 700H140L237 349H303L400 700H529V678L393 232H332V0H209V231H147L11 678V700ZM413 858L422 856V808Q393 791 353 780T270 762T189 753T124 750V784Q160 784 212 792T319 816T413 858Z" />
<glyph unicode="&#xfe;" horiz-adv-x="520" d="M53 0V700H176V624H293Q357 624 405 600T482 525T510 392Q510 311 481 258T402 178T293 151H176V0H53ZM176 258H277Q309 258 333 272T370 316T384 386Q384 426 371 454T333 497T277 512H176V258Z" />
<glyph unicode="&#xff;" horiz-adv-x="540" d="M11 700H140L237 349H303L400 700H529V678L393 232H332V0H209V231H147L11 678V700ZM450 748Q429 748 413 762T397 801Q397 823 413 838T450 853Q471 853 487 838T503 801Q503 777 487 763T450 748ZM603 748Q582 748
566 762T550 801Q550 823 566 838T603 853Q623 853 639 838T655 801Q655 777 639 763T603 748Z" />
<glyph unicode="&#x2013;" horiz-adv-x="445" d="M35 362H410V328H35V362Z" />
<glyph unicode="&#x2014;" horiz-adv-x="593" d="M32 362H562V328H32V362ZM32 362H562V328H32V362Z" />
<glyph unicode="&#x2018;" horiz-adv-x="197" d="M97 669H173L129 471H12V482L97 669Z" />
<glyph unicode="&#x2019;" horiz-adv-x="197" d="M99 502H24L68 700H185V690L99 502Z" />
<glyph unicode="&#x201a;" horiz-adv-x="196" d="M100 -70H25L69 128H186V118L100 -70Z" />
<glyph unicode="&#x201c;" horiz-adv-x="341" d="M239 700H314L270 502H153V512L239 700ZM92 700H168L124 502H7V512L92 700Z" />
<glyph unicode="&#x201d;" horiz-adv-x="341" d="M102 503H27L71 701H188V691L102 503ZM249 503H174L218 701H335V691L249 503Z" />
<glyph unicode="&#x201e;" horiz-adv-x="343" d="M100 -69H25L69 129H186V119L100 -69ZM247 -69H172L216 129H333V119L247 -69Z" />
<glyph unicode="&#x2022;" horiz-adv-x="271" d="M135 248Q104 248 81 262T45 299T32 352Q32 381 44 405T80 443T135 457Q167 457 190 443T226 405T240 352Q240 323 227 300T190 262T135 248Z" />
<glyph unicode="&#x2039;" horiz-adv-x="262" d="M189 559H222V547L62 355V345L222 153V141H189L30 334V366L189 559Z" />
<glyph unicode="&#x203a;" horiz-adv-x="262" d="M73 559L232 366V334L73 141H40V153L200 345V355L40 547V559H73Z" />
</font>
</defs>
</svg>
