<?xml version="1.0" standalone="no"?>
<!DOCTYPE svg PUBLIC "-//W3C//DTD SVG 1.1//EN" "http://www.w3.org/Graphics/SVG/1.1/DTD/svg11.dtd">
<svg xmlns="http://www.w3.org/2000/svg">
<defs >
<font id="Phudu" horiz-adv-x="495" ><font-face
    font-family="Phudu Light"
    units-per-em="1000"
    panose-1="0 0 0 0 0 0 0 0 0 0"
    ascent="1025"
    descent="-200"
    alphabetic="0" />
<glyph unicode=" " horiz-adv-x="240" />
<glyph unicode="!" horiz-adv-x="260" d="M130 -12Q90 -12 65 14T40 78Q40 116 65 142T130 169Q170 169 195 143T220 78Q220 41 195 15T130 -12ZM195 206H67L42 700H220L195 206Z" />
<glyph unicode="&quot;" horiz-adv-x="346" d="M130 470H40L18 701H157L130 470ZM301 470H211L189 701H328L301 470Z" />
<glyph unicode="#" horiz-adv-x="646" d="M293 700H341V688L123 0H75V12L293 700ZM511 700H559V688L341 0H293V12L511 700ZM88 499H634V453H88V499ZM12 250H557V204H12V250Z" />
<glyph unicode="$" horiz-adv-x="470" d="M450 192Q450 102 399 50T268 -11V-82H228V-12Q183 -10 144 2T77 28T35 54V209H55Q87 179 133 157T219 134Q239 134 254 140T279 159T288 187Q288 204 281 216T259 240T220 265L150 305Q127 318 104 335T62 375T32 431T20
505Q20 572 48 618T122 687T226 711H228V782H268V708Q316 701 352 682T407 645V490H387Q376 505 352 522T298 552T239 565Q216 565 199 553T182 516Q182 491 205 472T268 429L311 403Q360 374 390 344T435 277T450 192Z" />
<glyph unicode="%" horiz-adv-x="577" d="M491 700H519V688L84 0H56V12L491 700ZM426 -5Q369 -5 335 32T300 121Q300 174 334 211T426 248Q463 248 491 231T536 185T552 121Q552 69 517 32T426 -5ZM426 47Q458 47 479 68T500 122Q500 153 479 174T426 196Q392
196 372 175T352 122Q352 90 372 69T426 47ZM151 708Q94 708 60 745T25 834Q25 887 59 924T151 961Q188 961 216 944T261 898T277 834Q277 782 242 745T151 708ZM151 760Q183 760 204 781T225 835Q225 866 204 887T151 909Q117 909 97 888T77 835Q77 803 97 782T151
760Z" />
<glyph unicode="&amp;" horiz-adv-x="604" d="M226 265Q211 252 201 240T185 214T179 186Q179 157 200 136T261 115Q297 115 329 137T387 197T427 284T442 387V443H583V417Q583 364 573 305T540 190T476 89T374 16T229 -11Q165 -11 117 11T42 73T15 164Q15 215
34 247T80 301T133 340Q136 342 138 343T143 347T148 350Q119 383 98 411T66 467T54 528Q54 580 81 621T159 687T276 712Q340 712 387 691T461 633T487 547Q487 505 472 476T424 418T340 350L414 268Q445 234 472 206T526 160T576 142L584 136V0Q546 0 518 6T462
28T403 76T326 156L226 265ZM267 432Q290 447 304 462T324 493T331 524Q331 544 314 561T271 578Q245 578 228 563T210 524Q210 505 225 484T267 432Z" />
<glyph unicode="&apos;" horiz-adv-x="175" d="M130 470H40L18 701H157L130 470Z" />
<glyph unicode="(" horiz-adv-x="218" d="M20 350Q20 440 41 525T101 681T196 803H218V795Q167 740 133 669T83 517T66 350Q66 264 82 183T133 32T218 -95V-103H196Q141 -53 102 18T41 175T20 350Z" />
<glyph unicode=")" horiz-adv-x="218" d="M198 350Q198 260 177 175T117 19T22 -103H0V-95Q52 -39 85 31T135 183T152 350Q152 436 136 517T86 669T0 795V803H22Q77 753 116 682T177 525T198 350Z" />
<glyph unicode="*" horiz-adv-x="310" d="M135 700H175V400H135V700ZM15 608L35 642L295 492L275 458L15 608ZM275 642L295 608L35 458L15 492L275 642Z" />
<glyph unicode="+" horiz-adv-x="465" d="M35 365H430V325H35V365ZM253 543V148H213V543H253Z" />
<glyph unicode="," horiz-adv-x="218" d="M110 -73H15L64 158H208V146L110 -73Z" />
<glyph unicode="-" horiz-adv-x="455" d="M30 365H425V325H30V365Z" />
<glyph unicode="." horiz-adv-x="220" d="M200 78Q200 39 175 14T110 -12Q71 -12 46 13T20 78Q20 113 45 140T110 168Q149 168 174 141T200 78Z" />
<glyph unicode="/" horiz-adv-x="315" d="M268 782H306V770L48 -82H10V-70L268 782Z" />
<glyph unicode="0" horiz-adv-x="544" d="M25 327Q25 232 44 168T97 64T176 8T272 -10Q323 -10 367 7T446 64T500 167T519 327V374Q519 469 500 534T447 638T368 694T272 712Q221 712 177 695T98 638T44 534T25 374V327ZM187 329V369Q187 472 210 517T272 562Q310
562 333 517T357 369V329Q357 229 335 185T272 140Q230 140 209 184T187 329Z" />
<glyph unicode="1" horiz-adv-x="341" d="M138 0V529L32 461H20V626L138 700H296V0H138Z" />
<glyph unicode="2" horiz-adv-x="477" d="M452 505Q452 561 433 600T381 664T309 700T229 712Q153 712 102 691T25 646V491H45Q56 503 79 521T134 552T200 566Q241 566 264 545T288 486Q288 465 283 444T263 398T219 339T143 258T25 145V0H445V155H244V165L345
266Q375 300 399 335T438 413T452 505Z" />
<glyph unicode="3" horiz-adv-x="469" d="M177 308H125V406L248 535V545H33V700H437V555L295 406V398Q334 391 369 370T426 310T449 211Q449 136 418 87T334 14T221 -11Q165 -11 126 -1T62 25T20 55V210H30Q39 201 62 183T121 150T197 135Q232 135 257 155T283
218Q283 266 255 287T177 308Z" />
<glyph unicode="4" horiz-adv-x="535" d="M292 0V484L166 292V280H517V144H15V296L282 700H450V0H292Z" />
<glyph unicode="5" horiz-adv-x="492" d="M192 455H254Q320 455 367 428T441 352T467 234Q467 159 440 104T362 19T241 -11Q190 -11 150 -1T82 25T38 55V210H48Q57 201 80 183T139 150T215 135Q253 135 277 154T301 218Q301 249 285 270T240 302T172 313H38V380V700H430V545H192V455Z"
/>
<glyph unicode="6" horiz-adv-x="528" d="M20 249Q20 167 53 112T143 28T267 0Q335 0 391 28T480 111T514 249Q514 317 487 366T416 441T319 468Q280 468 263 462T234 451V462Q241 477 259 506T302 571T351 640T397 700V712H227Q209 693 188 664T145 601T107 537Q67
466 44 395T20 249ZM182 255Q182 277 191 298T220 333T267 348Q295 348 313 335T342 301T352 255Q352 227 342 206T314 174T267 162Q239 162 220 175T192 209T182 255Z" />
<glyph unicode="7" horiz-adv-x="442" d="M427 539L240 0H65L258 538V548H5V700H427V539Z" />
<glyph unicode="8" horiz-adv-x="546" d="M273 -12Q194 -12 136 17T47 95T15 204Q15 246 28 278T62 332T104 368T141 386V394Q122 401 100 418T61 464T44 538Q44 587 71 626T149 689T273 712Q346 712 397 689T475 627T502 538Q502 494 486 465T447 418T405 394V386Q421
382 442 369T483 333T517 278T531 204Q531 144 500 95T410 17T273 -12ZM272 290Q246 290 226 281T193 255T181 214Q181 190 193 172T225 145T272 135Q297 135 318 144T352 172T365 214Q365 238 352 255T318 281T272 290ZM273 433Q307 433 328 453T350 504Q350 539
329 558T273 577Q239 577 218 558T196 504Q196 473 217 453T273 433Z" />
<glyph unicode="9" horiz-adv-x="528" d="M508 463Q508 546 475 601T385 684T261 712Q193 712 137 684T48 601T14 463Q14 396 41 347T112 271T209 244Q248 244 266 250T294 261V250Q287 235 269 206T226 141T177 72T131 12V0H301Q319 20 340 49T383 111T421 175Q461
246 484 318T508 463ZM346 457Q346 436 337 415T308 379T261 364Q234 364 215 377T186 411T176 457Q176 485 186 506T215 538T261 550Q289 550 308 537T336 503T346 457Z" />
<glyph unicode=":" horiz-adv-x="212" d="M106 -4Q66 -4 41 22T16 86Q16 124 41 150T106 177Q146 177 171 151T196 86Q196 49 171 23T106 -4ZM106 323Q66 323 41 349T16 413Q16 451 41 477T106 504Q146 504 171 478T196 413Q196 376 171 350T106 323Z" />
<glyph unicode=";" horiz-adv-x="233" d="M128 323Q88 323 63 349T38 413Q38 451 63 477T128 504Q168 504 193 478T218 413Q218 376 193 350T128 323ZM105 -73H10L59 158H203V146L105 -73Z" />
<glyph unicode="&lt;" horiz-adv-x="410" d="M380 157L20 316V384L380 543V501L59 356V344L380 199V157Z" />
<glyph unicode="=" horiz-adv-x="455" d="M30 444H425V404H30V444ZM30 296H425V256H30V296Z" />
<glyph unicode="&gt;" horiz-adv-x="410" d="M30 157V199L351 344V356L30 501V543L390 384V316L30 157Z" />
<glyph unicode="?" horiz-adv-x="437" d="M272 235V206H114V263Q114 301 121 330T143 382T180 423L202 441Q226 461 237 479T249 516Q249 536 236 550T193 565Q168 565 142 556T94 535T55 510T32 490H22V645Q38 659 64 674T125 700T203 711Q261 711 308 691T384
630T413 525Q413 483 397 449T358 388T314 341Q296 324 287 307T275 273T272 235ZM195 -12Q155 -12 130 14T105 78Q105 116 130 142T195 169Q235 169 260 143T285 78Q285 41 260 15T195 -12Z" />
<glyph unicode="@" horiz-adv-x="724" d="M413 185L420 133Q428 69 464 34T564 -1Q618 -1 644 24T680 91T689 184V391Q689 502 648 573T534 678T362 712Q264 712 191 678T76 573T35 391V184Q35 76 75 13T182 -78T334 -106Q372 -106 406 -102T458 -86V11L448 14Q430
4 399 -1T334 -6Q272 -6 229 12T164 72T142 189V386Q142 501 194 556T362 612Q477 612 529 557T582 386V142Q582 123 578 111T562 99Q550 99 544 109T533 140L455 548H269L177 80V73H296L311 185H413ZM324 283L342 422H382L400 283H324Z" />
<glyph unicode="A" horiz-adv-x="554" d="M5 0V25L144 700L410 699L549 25V0H384L359 159H195L170 0H5ZM216 297H338L298 550H256L216 297Z" />
<glyph unicode="B" horiz-adv-x="533" d="M45 0H320Q381 0 426 22T497 89T523 198Q523 252 503 290T455 350T399 380V387Q421 394 444 412T482 461T498 537Q498 611 451 655T327 700H45V0ZM203 143V293H285Q316 293 336 274T357 219Q357 183 337 163T285 143H203ZM203
417V564H281Q308 564 326 545T344 491Q344 457 326 437T281 417H203Z" />
<glyph unicode="C" horiz-adv-x="496" d="M20 350Q20 443 45 511T112 623T209 689T321 711Q377 711 413 700T466 675V524H446Q433 538 409 551T349 565Q300 565 263 541T205 468T184 350Q184 280 205 232T263 160T349 135Q384 135 408 148T446 176H466V25Q450
12 414 1T321 -11Q263 -11 209 10T113 76T45 189T20 350Z" />
<glyph unicode="D" horiz-adv-x="555" d="M242 700H45V0H242Q325 0 391 37T496 152T535 350Q535 471 496 548T391 662T242 700ZM240 150H203V550H240Q298 550 335 499T373 350Q373 255 336 203T240 150Z" />
<glyph unicode="E" horiz-adv-x="432" d="M407 700V556H203V408Q233 419 265 425T328 434T386 433V294L376 288Q355 295 328 296T268 293T203 278V144H407V0H45V700H407Z" />
<glyph unicode="F" horiz-adv-x="425" d="M405 700V556H203V393Q233 404 265 410T328 419T386 418V279L376 273Q355 280 328 281T268 278T203 263V0H45V700H405Z" />
<glyph unicode="G" horiz-adv-x="587" d="M20 350Q20 475 64 555T183 673T348 711Q397 711 436 702T502 679T542 652V491H522Q511 509 489 526T436 554T368 565Q310 565 269 542T206 470T184 350Q184 280 203 231T261 157T352 131Q367 131 379 134T398 144V284H254V422H542V71Q499
28 444 9T323 -11Q264 -11 210 10T113 76T45 188T20 350Z" />
<glyph unicode="H" horiz-adv-x="573" d="M367 700H527V0H367V279H205V0H45V700H205V421H367V700Z" />
<glyph unicode="I" horiz-adv-x="249" d="M45 700H203V0H45V700Z" />
<glyph unicode="J" horiz-adv-x="383" d="M343 189Q343 111 317 68T248 6T157 -12Q101 -12 68 1T15 34V189H35Q50 164 74 149T120 134Q150 134 167 153T185 217V700H343V189ZM20 700H273V558H20V700Z" />
<glyph unicode="K" horiz-adv-x="525" d="M45 0V700H205V432H220L353 700H520V675L345 355L520 25V0H353L220 276H205V0H45Z" />
<glyph unicode="L" horiz-adv-x="387" d="M45 700H203V144H377V0H45V700Z" />
<glyph unicode="M" horiz-adv-x="712" d="M45 0V700H284L353 300H359L427 700H666V0H512L517 482H507L411 0H300L204 482H194L199 0H45Z" />
<glyph unicode="N" horiz-adv-x="561" d="M361 700H515V0H351L202 389H192L199 0H45V700H209L358 303H368L361 700Z" />
<glyph unicode="O" horiz-adv-x="626" d="M20 350Q20 477 61 557T168 674T313 712Q391 712 457 675T565 557T606 350Q606 223 565 143T458 26T313 -12Q235 -12 169 25T61 143T20 350ZM184 350Q184 280 201 233T247 162T313 138Q349 138 379 162T426 233T444 350Q444
421 426 468T379 538T313 562Q277 562 248 538T201 467T184 350Z" />
<glyph unicode="P" horiz-adv-x="513" d="M45 0V700H295Q359 700 406 676T481 601T508 468Q508 387 479 334T401 254T295 227H203V0H45ZM203 363H271Q295 363 312 375T337 410T346 461Q346 489 338 510T312 544T271 556H203V363Z" />
<glyph unicode="Q" horiz-adv-x="628" d="M20 372Q20 490 61 565T168 676T313 712Q391 712 457 676T565 565T606 372Q606 259 565 183T458 69T313 31Q235 31 169 69T61 183T20 372ZM184 372Q184 305 201 261T248 195T313 173Q348 173 378 194T426 260T444 372Q444
439 426 481T378 542T313 562Q278 562 249 542T202 480T184 372ZM520 30V-49Q492 -65 460 -66T394 -62T326 -50T260 -45T198 -63L192 -61V18Q221 35 253 36T319 31T387 18T453 12T514 32L520 30ZM240 48H336V23H240V48Z" />
<glyph unicode="R" horiz-adv-x="535" d="M47 700H205V0H45L47 700ZM307 700Q367 700 414 677T488 606T515 486Q515 412 485 363T408 290T307 265H124V700H307ZM205 400H286Q307 400 321 410T343 438T351 480Q351 503 344 520T322 546T286 556H205V400ZM238 350H390L515
25V0H350L238 350Z" />
<glyph unicode="S" horiz-adv-x="470" d="M450 192Q450 127 423 82T349 12T240 -12Q192 -12 151 -1T79 27T35 54V209H55Q87 179 133 157T219 134Q239 134 254 140T279 159T288 187Q288 213 272 229T220 265L150 305Q119 323 89 348T40 411T20 505Q20 572 48 618T122
687T226 711Q269 711 305 703T370 680T420 645V490H400Q368 524 326 544T242 565Q217 565 200 553T182 516Q182 491 205 472T268 429L340 385Q374 364 398 338T436 276T450 192Z" />
<glyph unicode="T" horiz-adv-x="434" d="M424 700V554H298V0H140V554H10V700H424Z" />
<glyph unicode="U" horiz-adv-x="566" d="M526 248V700H366V270Q366 235 358 208T331 165T283 149Q253 149 235 164T208 207T200 270V700H40V248Q40 176 61 126T118 46T197 3T283 -11Q326 -11 369 2T447 46T504 126T526 248Z" />
<glyph unicode="V" horiz-adv-x="554" d="M5 700H170L256 156H298L384 700H549V675L410 1L144 0L5 675V700Z" />
<glyph unicode="W" horiz-adv-x="743" d="M8 700H173L227 218H237L300 700H443L506 218H517L570 700H735V675L627 0H422L377 400H367L321 0H116L8 675V700Z" />
<glyph unicode="X" horiz-adv-x="551" d="M5 0V25L139 360L15 675V700H178L269 441H283L373 700H536V675L418 360L546 25V0H383L283 258H269L168 0H5Z" />
<glyph unicode="Y" horiz-adv-x="546" d="M6 700H172L250 365H296L374 700H540V675L414 214H352V0H194V213H132L6 675V700Z" />
<glyph unicode="Z" horiz-adv-x="498" d="M470 545L212 165V155H470V0H28V155L290 535V545H28V700H470V545Z" />
<glyph unicode="[" horiz-adv-x="183" d="M45 803H85V-103H45V803ZM59 803H153V763H59V803ZM59 -63H153V-103H59V-63Z" />
<glyph unicode="\" horiz-adv-x="315" d="M47 782L305 -70V-82H267L9 770V782H47Z" />
<glyph unicode="]" horiz-adv-x="183" d="M138 803V-103H98V803H138ZM124 803V763H30V803H124ZM124 -63V-103H30V-63H124Z" />
<glyph unicode="^" horiz-adv-x="372" d="M352 447H308L191 660H181L64 447H20L159 700H213L352 447Z" />
<glyph unicode="_" horiz-adv-x="540" d="M5 -12H535V-52H5V-12ZM5 -12H535V-52H5V-12Z" />
<glyph unicode="`" horiz-adv-x="484" d="M99 861Q140 835 195 819T303 795T394 787V747Q367 747 328 749T244 758T160 776T90 803V859L99 861Z" />
<glyph unicode="a" horiz-adv-x="554" d="M5 0V25L144 700L410 699L549 25V0H384L359 159H195L170 0H5ZM216 297H338L298 550H256L216 297Z" />
<glyph unicode="b" horiz-adv-x="533" d="M45 0H320Q381 0 426 22T497 89T523 198Q523 252 503 290T455 350T399 380V387Q421 394 444 412T482 461T498 537Q498 611 451 655T327 700H45V0ZM203 143V293H285Q316 293 336 274T357 219Q357 183 337 163T285 143H203ZM203
417V564H281Q308 564 326 545T344 491Q344 457 326 437T281 417H203Z" />
<glyph unicode="c" horiz-adv-x="496" d="M20 350Q20 443 45 511T112 623T209 689T321 711Q377 711 413 700T466 675V524H446Q433 538 409 551T349 565Q300 565 263 541T205 468T184 350Q184 280 205 232T263 160T349 135Q384 135 408 148T446 176H466V25Q450
12 414 1T321 -11Q263 -11 209 10T113 76T45 189T20 350Z" />
<glyph unicode="d" horiz-adv-x="555" d="M242 700H45V0H242Q325 0 391 37T496 152T535 350Q535 471 496 548T391 662T242 700ZM240 150H203V550H240Q298 550 335 499T373 350Q373 255 336 203T240 150Z" />
<glyph unicode="e" horiz-adv-x="432" d="M407 700V556H203V408Q233 419 265 425T328 434T386 433V294L376 288Q355 295 328 296T268 293T203 278V144H407V0H45V700H407Z" />
<glyph unicode="f" horiz-adv-x="425" d="M405 700V556H203V393Q233 404 265 410T328 419T386 418V279L376 273Q355 280 328 281T268 278T203 263V0H45V700H405Z" />
<glyph unicode="g" horiz-adv-x="587" d="M20 350Q20 475 64 555T183 673T348 711Q397 711 436 702T502 679T542 652V491H522Q511 509 489 526T436 554T368 565Q310 565 269 542T206 470T184 350Q184 280 203 231T261 157T352 131Q367 131 379 134T398 144V284H254V422H542V71Q499
28 444 9T323 -11Q264 -11 210 10T113 76T45 188T20 350Z" />
<glyph unicode="h" horiz-adv-x="573" d="M367 700H527V0H367V279H205V0H45V700H205V421H367V700Z" />
<glyph unicode="i" horiz-adv-x="249" d="M45 700H203V0H45V700Z" />
<glyph unicode="j" horiz-adv-x="383" d="M343 189Q343 111 317 68T248 6T157 -12Q101 -12 68 1T15 34V189H35Q50 164 74 149T120 134Q150 134 167 153T185 217V700H343V189ZM20 700H273V558H20V700Z" />
<glyph unicode="k" horiz-adv-x="525" d="M45 0V700H205V432H220L353 700H520V675L345 355L520 25V0H353L220 276H205V0H45Z" />
<glyph unicode="l" horiz-adv-x="387" d="M45 700H203V144H377V0H45V700Z" />
<glyph unicode="m" horiz-adv-x="712" d="M45 0V700H284L353 300H359L427 700H666V0H512L517 482H507L411 0H300L204 482H194L199 0H45Z" />
<glyph unicode="n" horiz-adv-x="561" d="M361 700H515V0H351L202 389H192L199 0H45V700H209L358 303H368L361 700Z" />
<glyph unicode="o" horiz-adv-x="626" d="M20 350Q20 477 61 557T168 674T313 712Q391 712 457 675T565 557T606 350Q606 223 565 143T458 26T313 -12Q235 -12 169 25T61 143T20 350ZM184 350Q184 280 201 233T247 162T313 138Q349 138 379 162T426 233T444 350Q444
421 426 468T379 538T313 562Q277 562 248 538T201 467T184 350Z" />
<glyph unicode="p" horiz-adv-x="513" d="M45 0V700H295Q359 700 406 676T481 601T508 468Q508 387 479 334T401 254T295 227H203V0H45ZM203 363H271Q295 363 312 375T337 410T346 461Q346 489 338 510T312 544T271 556H203V363Z" />
<glyph unicode="q" horiz-adv-x="628" d="M20 372Q20 490 61 565T168 676T313 712Q391 712 457 676T565 565T606 372Q606 259 565 183T458 69T313 31Q235 31 169 69T61 183T20 372ZM184 372Q184 305 201 261T248 195T313 173Q348 173 378 194T426 260T444 372Q444
439 426 481T378 542T313 562Q278 562 249 542T202 480T184 372ZM520 30V-49Q492 -65 460 -66T394 -62T326 -50T260 -45T198 -63L192 -61V18Q221 35 253 36T319 31T387 18T453 12T514 32L520 30ZM240 48H336V23H240V48Z" />
<glyph unicode="r" horiz-adv-x="535" d="M47 700H205V0H45L47 700ZM307 700Q367 700 414 677T488 606T515 486Q515 412 485 363T408 290T307 265H124V700H307ZM205 400H286Q307 400 321 410T343 438T351 480Q351 503 344 520T322 546T286 556H205V400ZM238 350H390L515
25V0H350L238 350Z" />
<glyph unicode="s" horiz-adv-x="470" d="M450 192Q450 127 423 82T349 12T240 -12Q192 -12 151 -1T79 27T35 54V209H55Q87 179 133 157T219 134Q239 134 254 140T279 159T288 187Q288 213 272 229T220 265L150 305Q119 323 89 348T40 411T20 505Q20 572 48 618T122
687T226 711Q269 711 305 703T370 680T420 645V490H400Q368 524 326 544T242 565Q217 565 200 553T182 516Q182 491 205 472T268 429L340 385Q374 364 398 338T436 276T450 192Z" />
<glyph unicode="t" horiz-adv-x="434" d="M424 700V554H298V0H140V554H10V700H424Z" />
<glyph unicode="u" horiz-adv-x="566" d="M526 248V700H366V270Q366 235 358 208T331 165T283 149Q253 149 235 164T208 207T200 270V700H40V248Q40 176 61 126T118 46T197 3T283 -11Q326 -11 369 2T447 46T504 126T526 248Z" />
<glyph unicode="v" horiz-adv-x="554" d="M5 700H170L256 156H298L384 700H549V675L410 1L144 0L5 675V700Z" />
<glyph unicode="w" horiz-adv-x="743" d="M8 700H173L227 218H237L300 700H443L506 218H517L570 700H735V675L627 0H422L377 400H367L321 0H116L8 675V700Z" />
<glyph unicode="x" horiz-adv-x="551" d="M5 0V25L139 360L15 675V700H178L269 441H283L373 700H536V675L418 360L546 25V0H383L283 258H269L168 0H5Z" />
<glyph unicode="y" horiz-adv-x="546" d="M6 700H172L250 365H296L374 700H540V675L414 214H352V0H194V213H132L6 675V700Z" />
<glyph unicode="z" horiz-adv-x="498" d="M470 545L212 165V155H470V0H28V155L290 535V545H28V700H470V545Z" />
<glyph unicode="{" horiz-adv-x="216" d="M20 375Q43 383 53 406T64 466V694Q64 755 96 779T172 803H211V763H173Q141 763 123 746T104 694V479Q104 427 96 400T62 359V353Q87 339 95 312T104 233V6Q104 -29 122 -46T173 -63H211V-103H172Q128 -103 96 -79T64
6L68 246Q69 283 56 306T20 337V375Z" />
<glyph unicode="|" horiz-adv-x="130" d="M45 782H85V-82H45V782Z" />
<glyph unicode="}" horiz-adv-x="216" d="M196 375V337Q173 330 160 307T148 246L152 6Q153 -55 121 -79T44 -103H5V-63H43Q75 -63 93 -46T112 6V233Q112 285 120 312T154 353V359Q129 373 121 400T112 479V694Q112 729 94 746T43 763H5V803H44Q88 803 120 779T152
694V466Q152 429 162 406T196 375Z" />
<glyph unicode="~" horiz-adv-x="443" d="M30 322Q30 356 44 375T80 403T125 411Q156 411 181 399T229 370T273 342T317 329Q344 329 358 342T373 378H413Q413 344 399 325T364 297T318 289Q287 289 262 301T214 330T170 358T125 371Q98 371 84 358T70 322H30Z" />
<glyph unicode="&#xa0;" horiz-adv-x="240" />
<glyph unicode="&#xa1;" horiz-adv-x="256" d="M128 532Q168 532 193 506T218 442Q218 405 193 378T128 351Q88 351 63 378T38 442Q38 480 63 506T128 532ZM218 -180H40L65 314H193L218 -180Z" />
<glyph unicode="&#xa2;" horiz-adv-x="426" d="M259 702H299V554H259V702ZM259 148H299V0H259V148ZM20 350Q20 427 41 483T100 575T182 630T276 648Q323 648 352 639T396 618V470H379Q369 482 349 493T299 504Q269 504 243 488T201 438T184 350Q184 296 200 262T243
211T299 195Q328 195 348 206T379 229H396V82Q382 71 353 62T276 52Q228 52 183 70T100 124T42 217T20 350Z" />
<glyph unicode="&#xa3;" horiz-adv-x="441" d="M38 361V321H109Q112 309 113 296T115 269Q115 228 102 197T71 149T38 127V0H416V144H225V150Q232 154 244 169T266 215T277 292Q277 300 277 307T275 321H416V361H266Q259 387 249 409T230 454T222 506Q222 531
238 551T289 571Q337 571 362 551T405 510H415V665Q403 676 386 686T339 704T265 711Q228 711 191 700T125 665T77 607T59 525Q59 467 71 431T97 361H38Z" />
<glyph unicode="&#xa4;" horiz-adv-x="375" d="M187 223Q130 223 96 260T61 349Q61 402 95 439T187 476Q243 476 278 439T313 349Q313 297 278 260T187 223ZM187 275Q220 275 240 296T261 349Q261 380 241 402T187 424Q153 424 133 402T113 349Q113 318 133 297T187
275ZM67 506L129 444L93 408L30 471L67 506ZM282 290L345 228L309 191L246 254L282 290ZM345 471L282 408L246 444L309 507L345 471ZM129 254L67 192L31 228L93 290L129 254Z" />
<glyph unicode="&#xa5;" horiz-adv-x="564" d="M203 289H361V0H203V289ZM15 700H181L279 365H285L383 700H549V685L403 214L161 213L15 685V700ZM53 253H510V213H53V253ZM53 177H510V137H53V177Z" />
<glyph unicode="&#xa6;" horiz-adv-x="130" d="M45 310H85V-82H45V310ZM45 782H85V390H45V782Z" />
<glyph unicode="&#xa7;" horiz-adv-x="353" d="M45 573Q45 551 50 533T64 500T87 474V472Q56 458 37 426T18 347Q18 309 31 282T65 237T106 207L153 180Q177 167 188 156T199 128Q199 112 186 102T152 92Q126 92 92 107T35 143H28V38Q38 31 58 21T106 2T166 -6Q228
-6 268 30T308 131Q308 162 298 186T263 236V239Q296 255 315 286T335 362Q335 410 313 442T241 504L212 522Q186 539 170 551T154 581Q154 597 165 605T193 614Q212 614 234 604T275 582T299 563H306V667Q290 681 259 696T184 712Q126 712 86 677T45 573ZM201
385Q213 375 219 362T226 332Q226 313 215 304T188 294Q178 294 167 300T143 317Q134 325 127 336T120 364Q120 382 130 392T156 404Q171 405 181 400T201 385Z" />
<glyph unicode="&#xa8;" horiz-adv-x="544" d="M188 745Q164 745 146 762T127 806Q127 832 145 849T188 867Q212 867 230 850T249 806Q249 779 231 762T188 745ZM356 745Q332 745 314 762T295 806Q295 832 313 849T356 867Q380 867 398 850T417 806Q417 779 399
762T356 745Z" />
<glyph unicode="&#xa9;" horiz-adv-x="680" d="M30 350Q30 445 55 513T125 626T224 691T340 712Q400 712 455 691T555 626T624 514T650 350Q650 255 625 187T555 74T456 9T340 -12Q280 -12 225 9T125 74T56 186T30 350ZM66 350Q66 238 104 166T205 59T339 24Q393
24 442 43T530 103T591 204T614 350Q614 434 591 495T529 597T441 656T339 676Q267 676 205 641T105 533T66 350ZM126 349Q126 440 157 498T239 585T347 614Q388 614 414 602T453 580V466H446Q436 477 415 490T367 504Q331 504 304 487T262 435T246 349Q246 298
261 264T304 212T367 194Q393 194 414 208T446 232H453V118Q441 108 415 96T347 84Q290 84 240 112T158 199T126 349Z" />
<glyph unicode="&#xaa;" horiz-adv-x="226" d="M10 436V445L62 700H163L215 445V436H153L143 496H82L72 436H10ZM89 548H135L120 643H105L89 548Z" />
<glyph unicode="&#xab;" horiz-adv-x="374" d="M179 559H217V547L57 355V345L217 153V141H179L20 334V366L179 559ZM306 559H344V547L184 355V345L344 153V141H306L147 334V366L306 559Z" />
<glyph unicode="&#xac;" horiz-adv-x="454" d="M25 369H420V329H25V369ZM380 358H420V128H380V358Z" />
<glyph unicode="&#xae;" horiz-adv-x="389" d="M195 344Q141 344 101 368T38 433T15 524Q15 574 37 615T100 680T195 705Q248 705 288 681T351 615T374 524Q374 474 351 433T288 368T195 344ZM195 380Q237 380 269 399T320 450T339 524Q339 565 321 597T270 649T195
669Q151 669 119 650T69 598T51 524Q51 463 90 422T195 380ZM133 630H179V423H131L133 630ZM209 630Q235 630 252 615T270 570Q270 539 251 523T209 507H155V630H209ZM179 547H203Q212 547 217 553T222 568Q222 576 217 581T203 587H179V547ZM188 527H233L270 427V423H222L188
527Z" />
<glyph unicode="&#xaf;" horiz-adv-x="434" d="M128 799H307V749H128V799Z" />
<glyph unicode="&#xb0;" horiz-adv-x="282" d="M141 459Q84 459 50 496T15 585Q15 638 49 675T141 712Q178 712 206 695T251 649T267 585Q267 533 232 496T141 459ZM141 511Q173 511 194 532T215 586Q215 617 194 638T141 660Q107 660 87 639T67 586Q67 554 87
533T141 511Z" />
<glyph unicode="&#xb1;" horiz-adv-x="470" d="M40 428H435V380H40V428ZM262 572V237H214V572H262ZM35 178H430V138H35V178Z" />
<glyph unicode="&#xb2;" horiz-adv-x="286" d="M271 303Q271 337 260 360T229 399T185 420T137 427Q92 427 61 414T15 388V295H27Q33 302 47 312T81 331T120 340Q144 340 158 328T173 292Q173 279 170 267T158 239T132 204T86 155T15 87V0H267V93H146V99L207 160Q225
180 239 201T262 248T271 303Z" />
<glyph unicode="&#xb3;" horiz-adv-x="281" d="M106 185H75V244L149 321V327H20V420H262V333L177 244V239Q200 235 221 222T255 186T269 127Q269 82 250 53T200 8T133 -7Q99 -7 76 -1T37 15T12 33V126H18Q23 120 37 110T73 90T118 81Q139 81 154 93T170 131Q170
160 153 172T106 185Z" />
<glyph unicode="&#xb4;" horiz-adv-x="484" d="M385 861L394 859V803Q365 787 325 776T240 759T157 750T90 747V787Q127 787 180 794T289 818T385 861Z" />
<glyph unicode="&#xb6;" horiz-adv-x="369" d="M246 0H198V354H167Q127 354 91 374T33 433T10 530Q10 619 55 659T167 700H246V0ZM286 700H334V0H286V700Z" />
<glyph unicode="&#xb7;" horiz-adv-x="210" d="M105 262Q65 262 40 288T15 352Q15 390 40 416T105 443Q146 443 170 417T195 352Q195 315 171 289T105 262Z" />
<glyph unicode="&#xb8;" horiz-adv-x="368" d="M188 -39Q213 -39 230 -58T248 -104Q248 -138 227 -155T177 -172Q153 -172 140 -165T118 -151V-111H126Q133 -118 144 -123T167 -128Q181 -128 188 -120T195 -100Q195 -89 188 -80T168 -71Q160 -71 156 -73T147 -79L120
-55L158 0H214L182 -39H188Z" />
<glyph unicode="&#xb9;" horiz-adv-x="205" d="M83 0V317L19 277H12V376L83 420H178V0H83Z" />
<glyph unicode="&#xba;" horiz-adv-x="278" d="M24 570Q24 620 40 651T82 697T139 712Q170 712 196 697T238 651T254 570Q254 520 238 489T196 442T139 427Q109 427 83 442T40 488T24 570ZM88 570Q88 542 95 524T113 496T139 486Q153 486 165 495T184 523T191
570Q191 598 184 616T165 644T139 653Q125 653 114 644T95 616T88 570Z" />
<glyph unicode="&#xbb;" horiz-adv-x="374" d="M195 559L354 366V334L195 141H157V153L317 345V355L157 547V559H195ZM68 559L227 366V334L68 141H30V153L190 345V355L30 547V559H68Z" />
<glyph unicode="&#xbc;" horiz-adv-x="624" d="M87 336V611L32 576H25V662L87 700H169V336H87ZM501 700H529V688L94 0H66V12L501 700ZM482 0V252L416 152V146H599V75H338V154L477 364H564V0H482Z" />
<glyph unicode="&#xbd;" horiz-adv-x="649" d="M107 336V611L52 576H45V662L107 700H189V336H107ZM502 700H530V688L95 0H67V12L502 700ZM604 263Q604 292 594 312T567 345T530 364T488 370Q448 370 422 359T382 336V255H392Q398 262 410 271T439 287T473 294Q494
294 506 284T519 253Q519 242 516 231T506 207T483 177T444 134T382 75V0H600V81H496V86L548 138Q564 156 576 174T596 214T604 263Z" />
<glyph unicode="&#xbe;" horiz-adv-x="657" d="M127 496H100V547L164 614V619H52V700H262V625L188 547V543Q208 539 226 528T256 497T268 446Q268 407 252 382T209 343T150 330Q121 330 101 335T67 349T45 365V445H51Q55 440 67 431T98 414T137 406Q156 406 169
416T182 449Q182 474 168 485T127 496ZM541 700H569V688L134 0H106V12L541 700ZM495 0V252L429 152V146H612V75H351V154L490 364H577V0H495Z" />
<glyph unicode="&#xbf;" horiz-adv-x="429" d="M159 287V316H317V259Q317 222 309 192T283 136T238 88Q224 76 212 65T193 39T188 5Q190 -11 198 -21T221 -37T251 -43Q272 -43 295 -34T339 -13T377 12T399 32H409V-123Q394 -137 368 -152T306 -178T228 -189Q170
-189 123 -169T47 -108T18 -3Q18 29 27 56T52 106T84 147T117 181Q135 199 144 215T156 249T159 287ZM236 534Q277 534 301 508T326 444Q326 407 302 380T236 353Q196 353 171 380T146 444Q146 482 171 508T236 534Z" />
<glyph unicode="&#xc0;" horiz-adv-x="554" d="M5 0V25L144 700L410 699L549 25V0H384L359 159H195L170 0H5ZM216 297H338L298 550H256L216 297ZM129 861Q170 835 225 819T333 795T424 787V747Q397 747 358 749T274 758T190 776T120 803V859L129 861Z" />
<glyph unicode="&#xc1;" horiz-adv-x="554" d="M5 0V25L144 700L410 699L549 25V0H384L359 159H195L170 0H5ZM216 297H338L298 550H256L216 297ZM425 861L434 859V803Q405 787 365 776T280 759T197 750T130 747V787Q167 787 220 794T329 818T425 861Z" />
<glyph unicode="&#xc2;" horiz-adv-x="554" d="M5 0V25L144 700L410 699L549 25V0H384L359 159H195L170 0H5ZM216 297H338L298 550H256L216 297ZM494 864H572Q594 828 628 807T715 785V745Q665 745 616 759T538 809H528Q499 773 450 759T351 745V785Q404 785 438
807T494 864Z" />
<glyph unicode="&#xc3;" horiz-adv-x="554" d="M5 0V25L144 700L410 699L549 25V0H384L359 159H195L170 0H5ZM216 297H338L298 550H256L216 297ZM277 755Q222 770 185 766T128 747H120V786Q132 797 152 806T203 819T279 811Q334 798 370 798T426 814H434V775Q423
765 403 756T353 745T277 755Z" />
<glyph unicode="&#xc4;" horiz-adv-x="554" d="M5 0V25L144 700L410 699L549 25V0H384L359 159H195L170 0H5ZM216 297H338L298 550H256L216 297ZM193 745Q169 745 151 762T132 806Q132 832 150 849T193 867Q217 867 235 850T254 806Q254 779 236 762T193 745ZM361
745Q337 745 319 762T300 806Q300 832 318 849T361 867Q385 867 403 850T422 806Q422 779 404 762T361 745Z" />
<glyph unicode="&#xc5;" horiz-adv-x="554" d="M5 0V25L144 700L410 699L549 25V0H384L359 159H195L170 0H5ZM216 297H338L298 550H256L216 297ZM277 743Q245 743 221 766T196 824Q196 860 220 882T277 905Q309 905 333 883T358 824Q358 790 334 767T277 743ZM241
824Q241 809 251 799T277 789Q292 789 302 799T313 824Q313 838 303 848T277 859Q262 859 252 849T241 824Z" />
<glyph unicode="&#xc6;" horiz-adv-x="693" d="M5 0V25L144 700L410 699V550H252L170 0H5ZM138 297H416V159H138V297ZM668 700V556H464V408Q494 419 526 425T589 434T647 433V294L637 288Q616 295 589 296T529 293T464 278V144H668V0H306V700H668Z" />
<glyph unicode="&#xc7;" horiz-adv-x="496" d="M20 350Q20 443 45 511T112 623T209 689T321 711Q377 711 413 700T466 675V524H446Q433 538 409 551T349 565Q300 565 263 541T205 468T184 350Q184 280 205 232T263 160T349 135Q384 135 408 148T446 176H466V25Q450
12 414 1T321 -11Q263 -11 209 10T113 76T45 189T20 350ZM332 -39Q357 -39 374 -58T392 -104Q392 -138 371 -155T321 -172Q297 -172 284 -165T262 -151V-111H270Q277 -118 288 -123T311 -128Q325 -128 332 -120T339 -100Q339 -89 332 -80T312 -71Q304 -71 300 -73T291
-79L264 -55L302 0H358L326 -39H332Z" />
<glyph unicode="&#xc8;" horiz-adv-x="432" d="M407 700V556H203V408Q233 419 265 425T328 434T386 433V294L376 288Q355 295 328 296T268 293T203 278V144H407V0H45V700H407ZM334 861Q375 835 430 819T538 795T629 787V747Q602 747 563 749T479 758T395 776T325
803V859L334 861Z" />
<glyph unicode="&#xc9;" horiz-adv-x="432" d="M407 700V556H203V408Q233 419 265 425T328 434T386 433V294L376 288Q355 295 328 296T268 293T203 278V144H407V0H45V700H407ZM630 861L639 859V803Q610 787 570 776T485 759T402 750T335 747V787Q372 787 425 794T534
818T630 861Z" />
<glyph unicode="&#xca;" horiz-adv-x="432" d="M407 700V556H203V408Q233 419 265 425T328 434T386 433V294L376 288Q355 295 328 296T268 293T203 278V144H407V0H45V700H407ZM443 864H521Q543 828 577 807T664 785V745Q614 745 565 759T487 809H477Q448 773 399
759T300 745V785Q353 785 387 807T443 864Z" />
<glyph unicode="&#xcb;" horiz-adv-x="432" d="M407 700V556H203V408Q233 419 265 425T328 434T386 433V294L376 288Q355 295 328 296T268 293T203 278V144H407V0H45V700H407ZM398 745Q374 745 356 762T337 806Q337 832 355 849T398 867Q422 867 440 850T459 806Q459
779 441 762T398 745ZM566 745Q542 745 524 762T505 806Q505 832 523 849T566 867Q590 867 608 850T627 806Q627 779 609 762T566 745Z" />
<glyph unicode="&#xcc;" horiz-adv-x="249" d="M45 700H203V0H45V700ZM232 861Q273 835 328 819T436 795T527 787V747Q500 747 461 749T377 758T293 776T223 803V859L232 861Z" />
<glyph unicode="&#xcd;" horiz-adv-x="249" d="M45 700H203V0H45V700ZM528 861L537 859V803Q508 787 468 776T383 759T300 750T233 747V787Q270 787 323 794T432 818T528 861Z" />
<glyph unicode="&#xce;" horiz-adv-x="249" d="M45 700H203V0H45V700ZM85 864H163Q185 828 219 807T306 785V745Q256 745 207 759T129 809H119Q90 773 41 759T-58 745V785Q-5 785 29 807T85 864Z" />
<glyph unicode="&#xcf;" horiz-adv-x="249" d="M45 700H203V0H45V700ZM40 745Q16 745 -2 762T-21 806Q-21 832 -3 849T40 867Q64 867 82 850T101 806Q101 779 83 762T40 745ZM208 745Q184 745 166 762T147 806Q147 832 165 849T208 867Q232 867 250 850T269 806Q269
779 251 762T208 745Z" />
<glyph unicode="&#xd0;" horiz-adv-x="571" d="M294 321V377H219V550H256Q314 550 351 499T389 350Q389 255 352 203T256 150H219V321H294ZM20 321H61V0H258Q341 0 407 37T512 152T551 350Q551 471 512 548T407 662T258 700H61V377H20V321Z" />
<glyph unicode="&#xd1;" horiz-adv-x="561" d="M361 700H515V0H351L202 389H192L199 0H45V700H209L358 303H368L361 700ZM280 755Q225 770 188 766T131 747H123V786Q135 797 155 806T206 819T282 811Q337 798 373 798T429 814H437V775Q426 765 406 756T356 745T280 755Z" />
<glyph unicode="&#xd2;" horiz-adv-x="626" d="M20 350Q20 477 61 557T168 674T313 712Q391 712 457 675T565 557T606 350Q606 223 565 143T458 26T313 -12Q235 -12 169 25T61 143T20 350ZM184 350Q184 280 201 233T247 162T313 138Q349 138 379 162T426 233T444
350Q444 421 426 468T379 538T313 562Q277 562 248 538T201 467T184 350ZM165 861Q206 835 261 819T369 795T460 787V747Q433 747 394 749T310 758T226 776T156 803V859L165 861Z" />
<glyph unicode="&#xd3;" horiz-adv-x="626" d="M20 350Q20 477 61 557T168 674T313 712Q391 712 457 675T565 557T606 350Q606 223 565 143T458 26T313 -12Q235 -12 169 25T61 143T20 350ZM184 350Q184 280 201 233T247 162T313 138Q349 138 379 162T426 233T444
350Q444 421 426 468T379 538T313 562Q277 562 248 538T201 467T184 350ZM461 861L470 859V803Q441 787 401 776T316 759T233 750T166 747V787Q203 787 256 794T365 818T461 861Z" />
<glyph unicode="&#xd4;" horiz-adv-x="626" d="M20 350Q20 477 61 557T168 674T313 712Q391 712 457 675T565 557T606 350Q606 223 565 143T458 26T313 -12Q235 -12 169 25T61 143T20 350ZM184 350Q184 280 201 233T247 162T313 138Q349 138 379 162T426 233T444
350Q444 421 426 468T379 538T313 562Q277 562 248 538T201 467T184 350ZM274 864H352Q374 828 408 807T495 785V745Q445 745 396 759T318 809H308Q279 773 230 759T131 745V785Q184 785 218 807T274 864Z" />
<glyph unicode="&#xd5;" horiz-adv-x="626" d="M20 350Q20 477 61 557T168 674T313 712Q391 712 457 675T565 557T606 350Q606 223 565 143T458 26T313 -12Q235 -12 169 25T61 143T20 350ZM184 350Q184 280 201 233T247 162T313 138Q349 138 379 162T426 233T444
350Q444 421 426 468T379 538T313 562Q277 562 248 538T201 467T184 350ZM313 755Q258 770 221 766T164 747H156V786Q168 797 188 806T239 819T315 811Q370 798 406 798T462 814H470V775Q459 765 439 756T389 745T313 755Z" />
<glyph unicode="&#xd6;" horiz-adv-x="626" d="M20 350Q20 477 61 557T168 674T313 712Q391 712 457 675T565 557T606 350Q606 223 565 143T458 26T313 -12Q235 -12 169 25T61 143T20 350ZM184 350Q184 280 201 233T247 162T313 138Q349 138 379 162T426 233T444
350Q444 421 426 468T379 538T313 562Q277 562 248 538T201 467T184 350ZM229 745Q205 745 187 762T168 806Q168 832 186 849T229 867Q253 867 271 850T290 806Q290 779 272 762T229 745ZM397 745Q373 745 355 762T336 806Q336 832 354 849T397 867Q421 867 439
850T458 806Q458 779 440 762T397 745Z" />
<glyph unicode="&#xd7;" horiz-adv-x="377" d="M63 499L342 220L314 191L34 471L63 499ZM343 471L63 191L35 220L314 499L343 471Z" />
<glyph unicode="&#xd8;" horiz-adv-x="626" d="M20 350Q20 477 61 557T168 674T313 712Q391 712 457 675T565 557T606 350Q606 223 565 143T458 26T313 -12Q235 -12 169 25T61 143T20 350ZM184 350Q184 280 201 233T247 162T313 138Q349 138 379 162T426 233T444
350Q444 421 426 468T379 538T313 562Q277 562 248 538T201 467T184 350ZM423 782H461V770L203 -82H165V-70L423 782Z" />
<glyph unicode="&#xd9;" horiz-adv-x="566" d="M526 248V700H366V270Q366 235 358 208T331 165T283 149Q253 149 235 164T208 207T200 270V700H40V248Q40 176 61 126T118 46T197 3T283 -11Q326 -11 369 2T447 46T504 126T526 248ZM135 861Q176 835 231 819T339
795T430 787V747Q403 747 364 749T280 758T196 776T126 803V859L135 861Z" />
<glyph unicode="&#xda;" horiz-adv-x="566" d="M526 248V700H366V270Q366 235 358 208T331 165T283 149Q253 149 235 164T208 207T200 270V700H40V248Q40 176 61 126T118 46T197 3T283 -11Q326 -11 369 2T447 46T504 126T526 248ZM431 861L440 859V803Q411 787
371 776T286 759T203 750T136 747V787Q173 787 226 794T335 818T431 861Z" />
<glyph unicode="&#xdb;" horiz-adv-x="566" d="M526 248V700H366V270Q366 235 358 208T331 165T283 149Q253 149 235 164T208 207T200 270V700H40V248Q40 176 61 126T118 46T197 3T283 -11Q326 -11 369 2T447 46T504 126T526 248ZM500 864H578Q600 828 634 807T721
785V745Q671 745 622 759T544 809H534Q505 773 456 759T357 745V785Q410 785 444 807T500 864Z" />
<glyph unicode="&#xdc;" horiz-adv-x="566" d="M526 248V700H366V270Q366 235 358 208T331 165T283 149Q253 149 235 164T208 207T200 270V700H40V248Q40 176 61 126T118 46T197 3T283 -11Q326 -11 369 2T447 46T504 126T526 248ZM199 745Q175 745 157 762T138
806Q138 832 156 849T199 867Q223 867 241 850T260 806Q260 779 242 762T199 745ZM367 745Q343 745 325 762T306 806Q306 832 324 849T367 867Q391 867 409 850T428 806Q428 779 410 762T367 745Z" />
<glyph unicode="&#xdd;" horiz-adv-x="546" d="M6 700H172L250 365H296L374 700H540V675L414 214H352V0H194V213H132L6 675V700ZM421 861L430 859V803Q401 787 361 776T276 759T193 750T126 747V787Q163 787 216 794T325 818T421 861Z" />
<glyph unicode="&#xde;" horiz-adv-x="513" d="M45 0V700H203V625H295Q359 625 406 601T481 526T508 393Q508 312 479 259T401 179T295 152H203V0H45ZM203 288H271Q295 288 312 300T337 335T346 386Q346 414 338 435T312 469T271 481H203V288Z" />
<glyph unicode="&#xdf;" horiz-adv-x="531" d="M237 0V143H283Q314 143 334 163T355 219Q355 255 335 274T283 293H237V417H279Q306 417 324 437T342 491Q342 526 324 545T273 564Q242 564 220 543T198 472V0H40V469Q40 539 63 593T138 679T274 710Q340 710 390
689T468 629T496 537Q496 492 479 461T439 411T395 387V380Q423 373 452 351T501 291T521 198Q521 93 466 47T318 0H237Z" />
<glyph unicode="&#xe0;" horiz-adv-x="554" d="M5 0V25L144 700L410 699L549 25V0H384L359 159H195L170 0H5ZM216 297H338L298 550H256L216 297ZM129 861Q170 835 225 819T333 795T424 787V747Q397 747 358 749T274 758T190 776T120 803V859L129 861Z" />
<glyph unicode="&#xe1;" horiz-adv-x="554" d="M5 0V25L144 700L410 699L549 25V0H384L359 159H195L170 0H5ZM216 297H338L298 550H256L216 297ZM425 861L434 859V803Q405 787 365 776T280 759T197 750T130 747V787Q167 787 220 794T329 818T425 861Z" />
<glyph unicode="&#xe2;" horiz-adv-x="554" d="M5 0V25L144 700L410 699L549 25V0H384L359 159H195L170 0H5ZM216 297H338L298 550H256L216 297ZM494 864H572Q594 828 628 807T715 785V745Q665 745 616 759T538 809H528Q499 773 450 759T351 745V785Q404 785 438
807T494 864Z" />
<glyph unicode="&#xe3;" horiz-adv-x="554" d="M5 0V25L144 700L410 699L549 25V0H384L359 159H195L170 0H5ZM216 297H338L298 550H256L216 297ZM277 755Q222 770 185 766T128 747H120V786Q132 797 152 806T203 819T279 811Q334 798 370 798T426 814H434V775Q423
765 403 756T353 745T277 755Z" />
<glyph unicode="&#xe4;" horiz-adv-x="554" d="M5 0V25L144 700L410 699L549 25V0H384L359 159H195L170 0H5ZM216 297H338L298 550H256L216 297ZM193 745Q169 745 151 762T132 806Q132 832 150 849T193 867Q217 867 235 850T254 806Q254 779 236 762T193 745ZM361
745Q337 745 319 762T300 806Q300 832 318 849T361 867Q385 867 403 850T422 806Q422 779 404 762T361 745Z" />
<glyph unicode="&#xe5;" horiz-adv-x="554" d="M5 0V25L144 700L410 699L549 25V0H384L359 159H195L170 0H5ZM216 297H338L298 550H256L216 297ZM277 743Q245 743 221 766T196 824Q196 860 220 882T277 905Q309 905 333 883T358 824Q358 790 334 767T277 743ZM241
824Q241 809 251 799T277 789Q292 789 302 799T313 824Q313 838 303 848T277 859Q262 859 252 849T241 824Z" />
<glyph unicode="&#xe6;" horiz-adv-x="693" d="M5 0V25L144 700L410 699V550H252L170 0H5ZM138 297H416V159H138V297ZM668 700V556H464V408Q494 419 526 425T589 434T647 433V294L637 288Q616 295 589 296T529 293T464 278V144H668V0H306V700H668Z" />
<glyph unicode="&#xe7;" horiz-adv-x="496" d="M20 350Q20 443 45 511T112 623T209 689T321 711Q377 711 413 700T466 675V524H446Q433 538 409 551T349 565Q300 565 263 541T205 468T184 350Q184 280 205 232T263 160T349 135Q384 135 408 148T446 176H466V25Q450
12 414 1T321 -11Q263 -11 209 10T113 76T45 189T20 350ZM332 -39Q357 -39 374 -58T392 -104Q392 -138 371 -155T321 -172Q297 -172 284 -165T262 -151V-111H270Q277 -118 288 -123T311 -128Q325 -128 332 -120T339 -100Q339 -89 332 -80T312 -71Q304 -71 300 -73T291
-79L264 -55L302 0H358L326 -39H332Z" />
<glyph unicode="&#xe8;" horiz-adv-x="432" d="M407 700V556H203V408Q233 419 265 425T328 434T386 433V294L376 288Q355 295 328 296T268 293T203 278V144H407V0H45V700H407ZM334 861Q375 835 430 819T538 795T629 787V747Q602 747 563 749T479 758T395 776T325
803V859L334 861Z" />
<glyph unicode="&#xe9;" horiz-adv-x="432" d="M407 700V556H203V408Q233 419 265 425T328 434T386 433V294L376 288Q355 295 328 296T268 293T203 278V144H407V0H45V700H407ZM630 861L639 859V803Q610 787 570 776T485 759T402 750T335 747V787Q372 787 425 794T534
818T630 861Z" />
<glyph unicode="&#xea;" horiz-adv-x="432" d="M407 700V556H203V408Q233 419 265 425T328 434T386 433V294L376 288Q355 295 328 296T268 293T203 278V144H407V0H45V700H407ZM443 864H521Q543 828 577 807T664 785V745Q614 745 565 759T487 809H477Q448 773 399
759T300 745V785Q353 785 387 807T443 864Z" />
<glyph unicode="&#xeb;" horiz-adv-x="432" d="M407 700V556H203V408Q233 419 265 425T328 434T386 433V294L376 288Q355 295 328 296T268 293T203 278V144H407V0H45V700H407ZM398 745Q374 745 356 762T337 806Q337 832 355 849T398 867Q422 867 440 850T459 806Q459
779 441 762T398 745ZM566 745Q542 745 524 762T505 806Q505 832 523 849T566 867Q590 867 608 850T627 806Q627 779 609 762T566 745Z" />
<glyph unicode="&#xec;" horiz-adv-x="249" d="M45 700H203V0H45V700ZM232 861Q273 835 328 819T436 795T527 787V747Q500 747 461 749T377 758T293 776T223 803V859L232 861Z" />
<glyph unicode="&#xed;" horiz-adv-x="249" d="M45 700H203V0H45V700ZM528 861L537 859V803Q508 787 468 776T383 759T300 750T233 747V787Q270 787 323 794T432 818T528 861Z" />
<glyph unicode="&#xee;" horiz-adv-x="249" d="M45 700H203V0H45V700ZM85 864H163Q185 828 219 807T306 785V745Q256 745 207 759T129 809H119Q90 773 41 759T-58 745V785Q-5 785 29 807T85 864Z" />
<glyph unicode="&#xef;" horiz-adv-x="249" d="M45 700H203V0H45V700ZM40 745Q16 745 -2 762T-21 806Q-21 832 -3 849T40 867Q64 867 82 850T101 806Q101 779 83 762T40 745ZM208 745Q184 745 166 762T147 806Q147 832 165 849T208 867Q232 867 250 850T269 806Q269
779 251 762T208 745Z" />
<glyph unicode="&#xf0;" horiz-adv-x="571" d="M294 321V377H219V550H256Q314 550 351 499T389 350Q389 255 352 203T256 150H219V321H294ZM20 321H61V0H258Q341 0 407 37T512 152T551 350Q551 471 512 548T407 662T258 700H61V377H20V321Z" />
<glyph unicode="&#xf1;" horiz-adv-x="561" d="M361 700H515V0H351L202 389H192L199 0H45V700H209L358 303H368L361 700ZM280 755Q225 770 188 766T131 747H123V786Q135 797 155 806T206 819T282 811Q337 798 373 798T429 814H437V775Q426 765 406 756T356 745T280 755Z" />
<glyph unicode="&#xf2;" horiz-adv-x="626" d="M20 350Q20 477 61 557T168 674T313 712Q391 712 457 675T565 557T606 350Q606 223 565 143T458 26T313 -12Q235 -12 169 25T61 143T20 350ZM184 350Q184 280 201 233T247 162T313 138Q349 138 379 162T426 233T444
350Q444 421 426 468T379 538T313 562Q277 562 248 538T201 467T184 350ZM165 861Q206 835 261 819T369 795T460 787V747Q433 747 394 749T310 758T226 776T156 803V859L165 861Z" />
<glyph unicode="&#xf3;" horiz-adv-x="626" d="M20 350Q20 477 61 557T168 674T313 712Q391 712 457 675T565 557T606 350Q606 223 565 143T458 26T313 -12Q235 -12 169 25T61 143T20 350ZM184 350Q184 280 201 233T247 162T313 138Q349 138 379 162T426 233T444
350Q444 421 426 468T379 538T313 562Q277 562 248 538T201 467T184 350ZM461 861L470 859V803Q441 787 401 776T316 759T233 750T166 747V787Q203 787 256 794T365 818T461 861Z" />
<glyph unicode="&#xf4;" horiz-adv-x="626" d="M20 350Q20 477 61 557T168 674T313 712Q391 712 457 675T565 557T606 350Q606 223 565 143T458 26T313 -12Q235 -12 169 25T61 143T20 350ZM184 350Q184 280 201 233T247 162T313 138Q349 138 379 162T426 233T444
350Q444 421 426 468T379 538T313 562Q277 562 248 538T201 467T184 350ZM274 864H352Q374 828 408 807T495 785V745Q445 745 396 759T318 809H308Q279 773 230 759T131 745V785Q184 785 218 807T274 864Z" />
<glyph unicode="&#xf5;" horiz-adv-x="626" d="M20 350Q20 477 61 557T168 674T313 712Q391 712 457 675T565 557T606 350Q606 223 565 143T458 26T313 -12Q235 -12 169 25T61 143T20 350ZM184 350Q184 280 201 233T247 162T313 138Q349 138 379 162T426 233T444
350Q444 421 426 468T379 538T313 562Q277 562 248 538T201 467T184 350ZM313 755Q258 770 221 766T164 747H156V786Q168 797 188 806T239 819T315 811Q370 798 406 798T462 814H470V775Q459 765 439 756T389 745T313 755Z" />
<glyph unicode="&#xf6;" horiz-adv-x="626" d="M20 350Q20 477 61 557T168 674T313 712Q391 712 457 675T565 557T606 350Q606 223 565 143T458 26T313 -12Q235 -12 169 25T61 143T20 350ZM184 350Q184 280 201 233T247 162T313 138Q349 138 379 162T426 233T444
350Q444 421 426 468T379 538T313 562Q277 562 248 538T201 467T184 350ZM229 745Q205 745 187 762T168 806Q168 832 186 849T229 867Q253 867 271 850T290 806Q290 779 272 762T229 745ZM397 745Q373 745 355 762T336 806Q336 832 354 849T397 867Q421 867 439
850T458 806Q458 779 440 762T397 745Z" />
<glyph unicode="&#xf7;" horiz-adv-x="465" d="M35 365H430V325H35V365ZM35 365H430V325H35V365ZM287 484Q287 460 272 445T233 430Q210 430 195 445T179 484Q179 505 194 521T233 538Q256 538 271 522T287 484ZM287 206Q287 182 272 167T233 152Q210 152 195
167T179 206Q179 227 194 243T233 260Q256 260 271 244T287 206Z" />
<glyph unicode="&#xf8;" horiz-adv-x="626" d="M20 350Q20 477 61 557T168 674T313 712Q391 712 457 675T565 557T606 350Q606 223 565 143T458 26T313 -12Q235 -12 169 25T61 143T20 350ZM184 350Q184 280 201 233T247 162T313 138Q349 138 379 162T426 233T444
350Q444 421 426 468T379 538T313 562Q277 562 248 538T201 467T184 350ZM423 782H461V770L203 -82H165V-70L423 782Z" />
<glyph unicode="&#xf9;" horiz-adv-x="566" d="M526 248V700H366V270Q366 235 358 208T331 165T283 149Q253 149 235 164T208 207T200 270V700H40V248Q40 176 61 126T118 46T197 3T283 -11Q326 -11 369 2T447 46T504 126T526 248ZM135 861Q176 835 231 819T339
795T430 787V747Q403 747 364 749T280 758T196 776T126 803V859L135 861Z" />
<glyph unicode="&#xfa;" horiz-adv-x="566" d="M526 248V700H366V270Q366 235 358 208T331 165T283 149Q253 149 235 164T208 207T200 270V700H40V248Q40 176 61 126T118 46T197 3T283 -11Q326 -11 369 2T447 46T504 126T526 248ZM431 861L440 859V803Q411 787
371 776T286 759T203 750T136 747V787Q173 787 226 794T335 818T431 861Z" />
<glyph unicode="&#xfb;" horiz-adv-x="566" d="M526 248V700H366V270Q366 235 358 208T331 165T283 149Q253 149 235 164T208 207T200 270V700H40V248Q40 176 61 126T118 46T197 3T283 -11Q326 -11 369 2T447 46T504 126T526 248ZM500 864H578Q600 828 634 807T721
785V745Q671 745 622 759T544 809H534Q505 773 456 759T357 745V785Q410 785 444 807T500 864Z" />
<glyph unicode="&#xfc;" horiz-adv-x="566" d="M526 248V700H366V270Q366 235 358 208T331 165T283 149Q253 149 235 164T208 207T200 270V700H40V248Q40 176 61 126T118 46T197 3T283 -11Q326 -11 369 2T447 46T504 126T526 248ZM199 745Q175 745 157 762T138
806Q138 832 156 849T199 867Q223 867 241 850T260 806Q260 779 242 762T199 745ZM367 745Q343 745 325 762T306 806Q306 832 324 849T367 867Q391 867 409 850T428 806Q428 779 410 762T367 745Z" />
<glyph unicode="&#xfd;" horiz-adv-x="546" d="M6 700H172L250 365H296L374 700H540V675L414 214H352V0H194V213H132L6 675V700ZM421 861L430 859V803Q401 787 361 776T276 759T193 750T126 747V787Q163 787 216 794T325 818T421 861Z" />
<glyph unicode="&#xfe;" horiz-adv-x="513" d="M45 0V700H203V625H295Q359 625 406 601T481 526T508 393Q508 312 479 259T401 179T295 152H203V0H45ZM203 288H271Q295 288 312 300T337 335T346 386Q346 414 338 435T312 469T271 481H203V288Z" />
<glyph unicode="&#xff;" horiz-adv-x="546" d="M6 700H172L250 365H296L374 700H540V675L414 214H352V0H194V213H132L6 675V700ZM189 745Q165 745 147 762T128 806Q128 832 146 849T189 867Q213 867 231 850T250 806Q250 779 232 762T189 745ZM357 745Q333 745
315 762T296 806Q296 832 314 849T357 867Q381 867 399 850T418 806Q418 779 400 762T357 745Z" />
<glyph unicode="&#x2013;" horiz-adv-x="435" d="M30 365H405V325H30V365Z" />
<glyph unicode="&#x2014;" horiz-adv-x="580" d="M25 365H555V325H25V365ZM25 365H555V325H25V365Z" />
<glyph unicode="&#x2018;" horiz-adv-x="208" d="M98 654H193L144 423H0V435L98 654Z" />
<glyph unicode="&#x2019;" horiz-adv-x="208" d="M110 469H15L64 700H208V688L110 469Z" />
<glyph unicode="&#x201a;" horiz-adv-x="208" d="M110 -73H15L64 158H208V146L110 -73Z" />
<glyph unicode="&#x201c;" horiz-adv-x="384" d="M274 700H369L320 469H176V481L274 700ZM98 700H193L144 469H0V481L98 700Z" />
<glyph unicode="&#x201d;" horiz-adv-x="384" d="M110 470H15L64 701H208V689L110 470ZM286 470H191L240 701H384V689L286 470Z" />
<glyph unicode="&#x201e;" horiz-adv-x="384" d="M110 -72H15L64 159H208V147L110 -72ZM286 -72H191L240 159H384V147L286 -72Z" />
<glyph unicode="&#x2022;" horiz-adv-x="302" d="M151 226Q113 226 85 243T41 288T25 352Q25 387 40 416T84 462T151 479Q188 479 216 462T261 416T277 352Q277 317 261 289T217 243T151 226Z" />
<glyph unicode="&#x2039;" horiz-adv-x="247" d="M179 559H217V547L57 355V345L217 153V141H179L20 334V366L179 559Z" />
<glyph unicode="&#x203a;" horiz-adv-x="247" d="M68 559L227 366V334L68 141H30V153L190 345V355L30 547V559H68Z" />
</font>
</defs>
</svg>
