<?xml version="1.0" standalone="no"?>
<!DOCTYPE svg PUBLIC "-//W3C//DTD SVG 1.1//EN" "http://www.w3.org/Graphics/SVG/1.1/DTD/svg11.dtd">
<svg xmlns="http://www.w3.org/2000/svg">
<defs >
<font id="Phudu" horiz-adv-x="495" ><font-face
    font-family="Phudu Light SemiBold"
    units-per-em="1000"
    panose-1="0 0 0 0 0 0 0 0 0 0"
    ascent="1025"
    descent="-200"
    alphabetic="0" />
<glyph unicode=" " horiz-adv-x="247" />
<glyph unicode="!" horiz-adv-x="250" d="M125 -12Q89 -12 67 12T44 69Q44 104 66 128T125 152Q161 152 184 128T207 69Q207 36 184 12T125 -12ZM182 191H70L47 700H205L182 191Z" />
<glyph unicode="&quot;" horiz-adv-x="327" d="M123 488H43L23 701H148L123 488ZM280 488H199L179 701H305L280 488Z" />
<glyph unicode="#" horiz-adv-x="657" d="M300 700H344V688L126 0H82V12L300 700ZM519 700H563V688L345 0H301V12L519 700ZM94 499H640V457H94V499ZM18 246H563V204H18V246Z" />
<glyph unicode="$" horiz-adv-x="472" d="M449 187Q449 99 399 48T268 -11V-82H230V-12Q185 -10 146 2T80 28T38 54V191H56Q88 162 134 140T224 117Q247 117 265 124T295 146T306 181Q306 200 298 214T274 242T229 272L157 313Q135 326 112 343T68 383T35 439T23
513Q23 578 50 622T124 688T228 711H230V782H268V708Q317 701 352 682T406 645V508H388Q377 523 352 540T297 569T234 582Q207 582 187 567T166 523Q166 494 190 473T255 427L310 393Q357 364 388 335T434 270T449 187Z" />
<glyph unicode="%" horiz-adv-x="579" d="M494 700H519V688L84 0H59V12L494 700ZM428 -5Q373 -5 339 31T305 118Q305 169 339 205T428 241Q464 241 491 225T535 180T551 118Q551 67 517 31T428 -5ZM428 43Q461 43 482 64T503 118Q503 150 482 171T428 193Q394
193 374 172T353 118Q353 86 373 65T428 43ZM152 715Q97 715 63 751T29 838Q29 889 63 925T152 961Q188 961 215 945T259 900T275 838Q275 787 241 751T152 715ZM152 763Q185 763 206 784T227 838Q227 870 206 891T152 913Q118 913 98 892T77 838Q77 806 97 785T152
763Z" />
<glyph unicode="&amp;" horiz-adv-x="604" d="M227 275Q205 258 192 243T172 214T165 182Q165 149 189 126T260 102Q297 102 331 123T391 182T432 271T447 381V443H573V412Q573 359 564 301T532 187T471 87T373 16T232 -11Q169 -11 121 11T47 73T20 164Q20 213
38 245T84 299T138 339Q141 341 144 343T151 348T157 352Q127 387 106 415T74 472T63 533Q63 585 89 625T164 688T275 712Q337 712 383 692T453 635T478 551Q478 506 462 475T412 416T329 350L421 244Q452 210 477 184T526 143T573 127L581 121V0Q545 0 519 5T467
26T413 70T344 143L227 275ZM263 424Q288 441 305 457T331 492T340 531Q340 555 321 574T272 593Q242 593 222 576T201 530Q201 508 216 484T263 424Z" />
<glyph unicode="&apos;" horiz-adv-x="171" d="M124 488H43L23 701H149L124 488Z" />
<glyph unicode="(" horiz-adv-x="226" d="M23 350Q23 441 44 525T104 681T197 803H217V795Q168 741 135 670T85 518T68 350Q68 264 84 183T134 31T217 -95V-103H197Q143 -52 104 19T44 174T23 350Z" />
<glyph unicode=")" horiz-adv-x="226" d="M202 350Q202 259 182 175T122 19T29 -103H9V-95Q59 -40 92 30T141 182T158 350Q158 436 142 517T92 670T9 795V803H29Q83 753 122 682T181 526T202 350Z" />
<glyph unicode="*" horiz-adv-x="315" d="M139 700H176V400H139V700ZM18 609L37 641L297 491L278 459L18 609ZM278 641L297 609L37 459L18 491L278 641Z" />
<glyph unicode="+" horiz-adv-x="470" d="M38 363H433V327H38V363ZM254 543V148H217V543H254Z" />
<glyph unicode="," horiz-adv-x="210" d="M103 -71H18L65 143H195V131L103 -71Z" />
<glyph unicode="-" horiz-adv-x="460" d="M33 364H428V326H33V364Z" />
<glyph unicode="." horiz-adv-x="211" d="M187 70Q187 34 164 11T106 -12Q71 -12 48 11T24 70Q24 102 47 126T106 151Q141 151 164 127T187 70Z" />
<glyph unicode="/" horiz-adv-x="319" d="M271 782H307V770L49 -82H13V-70L271 782Z" />
<glyph unicode="0" horiz-adv-x="551" d="M28 319Q28 228 47 165T100 64T179 8T275 -10Q326 -10 370 7T449 63T503 165T522 319V382Q522 473 503 536T450 638T371 694T275 712Q224 712 180 695T101 639T47 537T28 382V319ZM172 321V378Q172 483 200 531T275 579Q322
579 350 531T379 378V321Q379 219 352 171T275 122Q225 122 199 170T172 321Z" />
<glyph unicode="1" horiz-adv-x="337" d="M148 0V548L36 480H24V625L147 700H288V0H148Z" />
<glyph unicode="2" horiz-adv-x="478" d="M451 510Q451 564 433 602T383 665T312 700T232 712Q157 712 106 690T29 646V508H47Q60 521 84 538T141 569T208 582Q254 582 280 559T306 494Q306 473 301 452T281 404T235 341T153 252T27 128V0H445V137H223V147L328
254Q367 297 394 336T436 418T451 510Z" />
<glyph unicode="3" horiz-adv-x="475" d="M184 314H128V403L270 553V563H36V700H440V572L282 404V396Q327 391 366 370T428 309T452 208Q452 134 421 86T338 13T225 -11Q169 -11 130 -1T65 25T23 55V193H33Q42 184 66 166T125 133T203 118Q246 118 276 141T306
214Q306 267 274 290T184 314Z" />
<glyph unicode="4" horiz-adv-x="536" d="M306 0V512L154 286V274H516V153H18V288L293 700H446V0H306Z" />
<glyph unicode="5" horiz-adv-x="499" d="M178 448H250Q320 448 369 421T444 345T470 229Q470 155 443 102T364 19T244 -11Q192 -11 152 -1T85 25T41 55V193H51Q60 184 84 166T143 133T221 118Q268 118 295 142T323 215Q323 249 307 273T259 310T182 323H41V382V700H433V563H178V448Z"
/>
<glyph unicode="6" horiz-adv-x="532" d="M23 249Q23 167 56 112T146 28T270 0Q337 0 393 28T482 111T516 248Q516 318 488 368T414 445T314 472Q275 472 254 465T217 447L216 457Q224 476 243 507T287 573T338 642T384 700V712H234Q216 693 195 665T153 605T114
543Q73 471 48 398T23 249ZM167 253Q167 281 178 306T213 347T270 364Q303 364 325 349T360 308T372 253Q372 221 360 196T326 157T270 142Q236 142 213 157T179 198T167 253Z" />
<glyph unicode="7" horiz-adv-x="445" d="M430 556L229 0H75L281 555V565H9V700H430V556Z" />
<glyph unicode="8" horiz-adv-x="555" d="M277 -12Q199 -12 141 16T51 93T19 203Q19 245 33 277T68 331T110 367T147 385V393Q128 400 105 417T66 463T49 538Q49 587 76 626T154 689T277 712Q350 712 401 689T479 627T506 538Q506 493 489 464T449 417T407 393V385Q423
381 444 368T487 332T521 277T535 203Q535 142 504 94T414 17T277 -12ZM276 301Q245 301 220 291T181 260T166 211Q166 183 181 162T220 129T276 118Q307 118 332 129T372 161T388 211Q388 239 373 259T333 290T276 301ZM277 429Q319 429 345 451T371 509Q371 549
345 570T277 592Q236 592 210 571T183 509Q183 473 209 451T277 429Z" />
<glyph unicode="9" horiz-adv-x="532" d="M509 463Q509 546 476 601T386 684T262 712Q195 712 140 684T50 601T16 464Q16 395 44 345T119 267T218 240Q258 240 279 247T315 265L316 255Q308 236 289 205T245 139T194 71T148 12V0H298Q317 20 338 47T380 107T418
169Q459 241 484 314T509 463ZM365 459Q365 432 354 407T319 365T262 348Q230 348 207 363T172 404T160 459Q160 491 172 516T208 555T262 570Q296 570 319 555T353 514T365 459Z" />
<glyph unicode=":" horiz-adv-x="205" d="M102 -5Q66 -5 44 18T21 76Q21 110 43 134T102 158Q138 158 161 134T184 76Q184 42 161 19T102 -5ZM102 323Q66 323 44 347T21 405Q21 439 43 463T102 487Q138 487 161 463T184 405Q184 371 161 347T102 323Z" />
<glyph unicode=";" horiz-adv-x="223" d="M121 323Q85 323 63 347T40 405Q40 439 62 463T121 487Q157 487 180 463T203 405Q203 371 180 347T121 323ZM97 -71H12L58 143H188V131L97 -71Z" />
<glyph unicode="&lt;" horiz-adv-x="415" d="M381 159L23 318V382L381 541V501L59 356V344L381 199V159Z" />
<glyph unicode="=" horiz-adv-x="461" d="M33 441H428V404H33V441ZM33 296H428V259H33V296Z" />
<glyph unicode="&gt;" horiz-adv-x="415" d="M33 159V199L355 344V356L33 501V541L392 382V318L33 159Z" />
<glyph unicode="?" horiz-adv-x="448" d="M268 228V191H129V253Q129 291 135 320T157 374T198 419L218 435Q245 456 259 476T273 521Q273 547 256 564T202 582Q176 582 150 573T100 552T61 528T38 508H28V645Q43 659 68 674T130 700T210 711Q268 711 315 692T390
632T418 529Q418 485 402 451T361 390T314 344Q293 326 284 307T271 269T268 228ZM200 -12Q164 -12 142 12T119 69Q119 104 141 128T200 152Q236 152 259 128T282 69Q282 36 259 12T200 -12Z" />
<glyph unicode="@" horiz-adv-x="733" d="M426 190L435 133Q445 69 479 35T574 1Q625 1 650 25T684 89T693 178V389Q693 500 652 571T538 677T366 712Q268 712 195 678T80 572T39 391V187Q39 80 79 16T187 -75T342 -103Q386 -103 421 -97T473 -80V8L463 11Q445
1 413 -6T341 -13Q275 -13 229 7T160 71T136 192V387Q136 505 191 563T366 621Q486 621 541 563T596 385V143Q596 120 591 106T572 92Q558 92 550 104T537 140L455 548H277L181 80V73H290L308 190H426ZM320 279L345 436H388L413 279H320Z" />
<glyph unicode="A" horiz-adv-x="557" d="M8 0V23L154 700L403 699L550 23V0H404L372 176H186L153 0H8ZM205 299H352L303 567H254L205 299Z" />
<glyph unicode="B" horiz-adv-x="540" d="M49 0H324Q384 0 429 22T499 88T525 197Q525 252 506 289T458 348T403 377V384Q424 391 447 408T485 457T501 535Q501 611 455 655T332 700H49V0ZM189 127V301H294Q330 301 354 279T378 215Q378 172 355 150T294 127H189ZM189
411V579H292Q324 579 344 557T364 495Q364 456 344 434T292 411H189Z" />
<glyph unicode="C" horiz-adv-x="500" d="M23 350Q23 443 48 511T115 623T212 689T324 711Q380 711 416 700T469 674V540H450Q436 555 410 568T346 581Q294 581 254 555T192 477T169 350Q169 275 191 224T254 146T346 119Q384 119 410 132T450 160H469V26Q453
13 417 1T324 -11Q266 -11 212 10T116 76T48 189T23 350Z" />
<glyph unicode="D" horiz-adv-x="558" d="M242 700H49V0H242Q325 0 391 37T496 152T535 350Q535 471 496 548T391 662T242 700ZM240 133H189V567H240Q307 567 349 511T392 350Q392 247 350 190T240 133Z" />
<glyph unicode="E" horiz-adv-x="435" d="M408 700V572H189V401Q220 413 254 420T323 429T386 427V304L377 298Q354 305 324 306T258 302T189 285V128H408V0H49V700H408Z" />
<glyph unicode="F" horiz-adv-x="427" d="M406 700V572H189V383Q220 395 254 401T323 410T386 409V286L377 280Q354 287 324 288T258 284T189 267V0H49V700H406Z" />
<glyph unicode="G" horiz-adv-x="591" d="M23 350Q23 475 67 555T186 673T351 711Q400 711 439 701T505 678T545 651V508H526Q514 526 491 543T437 570T366 581Q304 581 260 556T192 479T169 350Q169 276 190 224T253 144T350 116Q374 116 391 121T417 136V294H247V416H545V71Q502
28 447 9T326 -11Q267 -11 213 10T116 76T48 188T23 350Z" />
<glyph unicode="H" horiz-adv-x="582" d="M390 700H531V0H390V287H191V0H49V700H191V413H390V700Z" />
<glyph unicode="I" horiz-adv-x="240" d="M49 700H189V0H49V700Z" />
<glyph unicode="J" horiz-adv-x="379" d="M336 186Q336 109 311 66T244 6T156 -12Q102 -12 69 2T17 34V172H35Q52 147 76 132T125 117Q157 117 176 138T196 207V700H336V186ZM21 700H274V574H21V700Z" />
<glyph unicode="K" horiz-adv-x="519" d="M49 0V700H191V423H211L364 700H511V677L322 355L511 23V0H364L211 285H191V0H49Z" />
<glyph unicode="L" horiz-adv-x="393" d="M49 700H189V128H380V0H49V700Z" />
<glyph unicode="M" horiz-adv-x="721" d="M49 0V700H265L357 256H364L455 700H670V0H534L538 511H527L414 0H306L192 511H181L186 0H49Z" />
<glyph unicode="N" horiz-adv-x="567" d="M380 700H517V0H364L191 434H180L186 0H49V700H202L375 260H386L380 700Z" />
<glyph unicode="O" horiz-adv-x="633" d="M23 350Q23 477 64 557T171 674T316 712Q394 712 460 675T568 557T609 350Q609 223 568 143T461 26T316 -12Q238 -12 172 25T64 143T23 350ZM169 350Q169 274 188 223T241 147T316 121Q357 121 391 146T446 223T466 350Q466
427 446 478T391 554T317 579Q275 579 242 553T189 477T169 350Z" />
<glyph unicode="P" horiz-adv-x="515" d="M49 0V700H292Q356 700 404 676T479 602T507 470Q507 390 478 337T400 257T292 230H189V0H49ZM189 351H273Q300 351 321 365T353 404T364 463Q364 497 353 521T321 559T273 572H189V351Z" />
<glyph unicode="Q" horiz-adv-x="635" d="M23 370Q23 488 64 563T171 675T316 712Q395 712 461 676T568 564T609 370Q609 255 568 179T461 64T316 26Q238 26 172 64T64 178T23 370ZM169 369Q169 297 188 249T242 176T316 152Q357 152 391 176T445 248T466 370Q466
442 445 488T391 557T316 579Q276 579 242 557T189 488T169 369ZM523 25V-47Q495 -63 463 -64T397 -60T329 -48T263 -43T201 -61L195 -59V13Q224 30 256 31T322 26T390 13T456 7T517 27L523 25ZM244 42H335V17H244V42Z" />
<glyph unicode="R" horiz-adv-x="536" d="M51 700H191V0H49L51 700ZM305 700Q365 700 411 677T485 606T512 487Q512 414 483 366T407 293T307 268H117V700H305ZM189 389H288Q312 389 330 400T357 432T367 481Q367 510 358 530T330 561T288 572H189V389ZM245 344L379
347L512 23V0H366L245 344Z" />
<glyph unicode="S" horiz-adv-x="472" d="M449 185Q449 123 423 79T349 12T241 -12Q193 -12 152 -1T82 27T38 54V191H56Q88 162 134 140T224 117Q247 117 265 124T295 146T306 180Q306 210 289 228T235 268L152 317Q121 335 92 359T43 421T23 513Q23 577 50 621T123
688T226 711Q270 711 306 702T371 679T419 645V508H400Q370 541 327 561T238 582Q208 582 187 567T166 523Q166 494 190 473T253 428L336 377Q370 356 395 330T434 268T449 185Z" />
<glyph unicode="T" horiz-adv-x="433" d="M422 700V571H288V0H148V571H12V700H422Z" />
<glyph unicode="U" horiz-adv-x="566" d="M523 243V700H382V261Q382 222 371 193T338 147T283 130Q250 130 228 146T195 192T184 261V700H43V243Q43 172 64 123T120 45T198 2T283 -11Q325 -11 367 2T445 44T502 123T523 243Z" />
<glyph unicode="V" horiz-adv-x="557" d="M8 700H153L254 137H302L403 700H549V677L402 1L154 0L8 677V700Z" />
<glyph unicode="W" horiz-adv-x="738" d="M11 700H156L220 189H231L301 700H437L507 189H519L582 700H727V677L618 0H429L375 443H364L309 0H120L11 677V700Z" />
<glyph unicode="X" horiz-adv-x="542" d="M8 0V23L150 360L18 677V700H162L265 431H280L381 700H525V677L399 360L535 23V0H391L280 271H265L152 0H8Z" />
<glyph unicode="Y" horiz-adv-x="543" d="M9 700H155L243 357H299L388 700H534V677L403 223H342V0H202V222H140L9 677V700Z" />
<glyph unicode="Z" horiz-adv-x="499" d="M470 563L192 147V137H470V0H28V137L310 553V563H28V700H470V563Z" />
<glyph unicode="[" horiz-adv-x="192" d="M50 803H87V-103H50V803ZM64 803H156V766H64V803ZM64 -66H156V-103H64V-66Z" />
<glyph unicode="\" horiz-adv-x="319" d="M48 782L306 -70V-82H271L13 770V782H48Z" />
<glyph unicode="]" horiz-adv-x="192" d="M141 803V-103H104V803H141ZM127 803V766H35V803H127ZM127 -66V-103H35V-66H127Z" />
<glyph unicode="^" horiz-adv-x="373" d="M350 447H309L192 663H182L65 447H23L161 700H212L350 447Z" />
<glyph unicode="_" horiz-adv-x="547" d="M8 -12H538V-49H8V-12ZM8 -12H538V-49H8V-12Z" />
<glyph unicode="`" horiz-adv-x="484" d="M100 860Q141 834 195 818T303 794T392 786V748Q366 748 327 751T245 760T161 778T92 805V858L100 860Z" />
<glyph unicode="a" horiz-adv-x="557" d="M8 0V23L154 700L403 699L550 23V0H404L372 176H186L153 0H8ZM205 299H352L303 567H254L205 299Z" />
<glyph unicode="b" horiz-adv-x="540" d="M49 0H324Q384 0 429 22T499 88T525 197Q525 252 506 289T458 348T403 377V384Q424 391 447 408T485 457T501 535Q501 611 455 655T332 700H49V0ZM189 127V301H294Q330 301 354 279T378 215Q378 172 355 150T294 127H189ZM189
411V579H292Q324 579 344 557T364 495Q364 456 344 434T292 411H189Z" />
<glyph unicode="c" horiz-adv-x="500" d="M23 350Q23 443 48 511T115 623T212 689T324 711Q380 711 416 700T469 674V540H450Q436 555 410 568T346 581Q294 581 254 555T192 477T169 350Q169 275 191 224T254 146T346 119Q384 119 410 132T450 160H469V26Q453
13 417 1T324 -11Q266 -11 212 10T116 76T48 189T23 350Z" />
<glyph unicode="d" horiz-adv-x="558" d="M242 700H49V0H242Q325 0 391 37T496 152T535 350Q535 471 496 548T391 662T242 700ZM240 133H189V567H240Q307 567 349 511T392 350Q392 247 350 190T240 133Z" />
<glyph unicode="e" horiz-adv-x="435" d="M408 700V572H189V401Q220 413 254 420T323 429T386 427V304L377 298Q354 305 324 306T258 302T189 285V128H408V0H49V700H408Z" />
<glyph unicode="f" horiz-adv-x="427" d="M406 700V572H189V383Q220 395 254 401T323 410T386 409V286L377 280Q354 287 324 288T258 284T189 267V0H49V700H406Z" />
<glyph unicode="g" horiz-adv-x="591" d="M23 350Q23 475 67 555T186 673T351 711Q400 711 439 701T505 678T545 651V508H526Q514 526 491 543T437 570T366 581Q304 581 260 556T192 479T169 350Q169 276 190 224T253 144T350 116Q374 116 391 121T417 136V294H247V416H545V71Q502
28 447 9T326 -11Q267 -11 213 10T116 76T48 188T23 350Z" />
<glyph unicode="h" horiz-adv-x="582" d="M390 700H531V0H390V287H191V0H49V700H191V413H390V700Z" />
<glyph unicode="i" horiz-adv-x="240" d="M49 700H189V0H49V700Z" />
<glyph unicode="j" horiz-adv-x="379" d="M336 186Q336 109 311 66T244 6T156 -12Q102 -12 69 2T17 34V172H35Q52 147 76 132T125 117Q157 117 176 138T196 207V700H336V186ZM21 700H274V574H21V700Z" />
<glyph unicode="k" horiz-adv-x="519" d="M49 0V700H191V423H211L364 700H511V677L322 355L511 23V0H364L211 285H191V0H49Z" />
<glyph unicode="l" horiz-adv-x="393" d="M49 700H189V128H380V0H49V700Z" />
<glyph unicode="m" horiz-adv-x="721" d="M49 0V700H265L357 256H364L455 700H670V0H534L538 511H527L414 0H306L192 511H181L186 0H49Z" />
<glyph unicode="n" horiz-adv-x="567" d="M380 700H517V0H364L191 434H180L186 0H49V700H202L375 260H386L380 700Z" />
<glyph unicode="o" horiz-adv-x="633" d="M23 350Q23 477 64 557T171 674T316 712Q394 712 460 675T568 557T609 350Q609 223 568 143T461 26T316 -12Q238 -12 172 25T64 143T23 350ZM169 350Q169 274 188 223T241 147T316 121Q357 121 391 146T446 223T466 350Q466
427 446 478T391 554T317 579Q275 579 242 553T189 477T169 350Z" />
<glyph unicode="p" horiz-adv-x="515" d="M49 0V700H292Q356 700 404 676T479 602T507 470Q507 390 478 337T400 257T292 230H189V0H49ZM189 351H273Q300 351 321 365T353 404T364 463Q364 497 353 521T321 559T273 572H189V351Z" />
<glyph unicode="q" horiz-adv-x="635" d="M23 370Q23 488 64 563T171 675T316 712Q395 712 461 676T568 564T609 370Q609 255 568 179T461 64T316 26Q238 26 172 64T64 178T23 370ZM169 369Q169 297 188 249T242 176T316 152Q357 152 391 176T445 248T466 370Q466
442 445 488T391 557T316 579Q276 579 242 557T189 488T169 369ZM523 25V-47Q495 -63 463 -64T397 -60T329 -48T263 -43T201 -61L195 -59V13Q224 30 256 31T322 26T390 13T456 7T517 27L523 25ZM244 42H335V17H244V42Z" />
<glyph unicode="r" horiz-adv-x="536" d="M51 700H191V0H49L51 700ZM305 700Q365 700 411 677T485 606T512 487Q512 414 483 366T407 293T307 268H117V700H305ZM189 389H288Q312 389 330 400T357 432T367 481Q367 510 358 530T330 561T288 572H189V389ZM245 344L379
347L512 23V0H366L245 344Z" />
<glyph unicode="s" horiz-adv-x="472" d="M449 185Q449 123 423 79T349 12T241 -12Q193 -12 152 -1T82 27T38 54V191H56Q88 162 134 140T224 117Q247 117 265 124T295 146T306 180Q306 210 289 228T235 268L152 317Q121 335 92 359T43 421T23 513Q23 577 50 621T123
688T226 711Q270 711 306 702T371 679T419 645V508H400Q370 541 327 561T238 582Q208 582 187 567T166 523Q166 494 190 473T253 428L336 377Q370 356 395 330T434 268T449 185Z" />
<glyph unicode="t" horiz-adv-x="433" d="M422 700V571H288V0H148V571H12V700H422Z" />
<glyph unicode="u" horiz-adv-x="566" d="M523 243V700H382V261Q382 222 371 193T338 147T283 130Q250 130 228 146T195 192T184 261V700H43V243Q43 172 64 123T120 45T198 2T283 -11Q325 -11 367 2T445 44T502 123T523 243Z" />
<glyph unicode="v" horiz-adv-x="557" d="M8 700H153L254 137H302L403 700H549V677L402 1L154 0L8 677V700Z" />
<glyph unicode="w" horiz-adv-x="738" d="M11 700H156L220 189H231L301 700H437L507 189H519L582 700H727V677L618 0H429L375 443H364L309 0H120L11 677V700Z" />
<glyph unicode="x" horiz-adv-x="542" d="M8 0V23L150 360L18 677V700H162L265 431H280L381 700H525V677L399 360L535 23V0H391L280 271H265L152 0H8Z" />
<glyph unicode="y" horiz-adv-x="543" d="M9 700H155L243 357H299L388 700H534V677L403 223H342V0H202V222H140L9 677V700Z" />
<glyph unicode="z" horiz-adv-x="499" d="M470 563L192 147V137H470V0H28V137L310 553V563H28V700H470V563Z" />
<glyph unicode="{" horiz-adv-x="216" d="M20 374Q43 382 53 404T64 463V699Q64 758 95 780T168 803H207V766H169Q138 766 120 750T102 699V474Q102 424 94 399T60 359V353Q85 339 93 314T102 238V1Q102 -34 120 -50T169 -66H207V-103H168Q126 -103 95 -81T64
1L68 249Q68 285 56 308T20 338V374Z" />
<glyph unicode="|" horiz-adv-x="138" d="M50 782H87V-82H50V782Z" />
<glyph unicode="}" horiz-adv-x="216" d="M195 374V338Q172 331 160 308T148 249L151 1Q152 -58 121 -80T47 -103H8V-66H46Q77 -66 95 -50T114 1V238Q114 288 122 313T156 353V359Q131 373 123 398T114 474V699Q114 734 96 750T46 766H8V803H47Q90 803 120 781T151
699V463Q151 427 161 405T195 374Z" />
<glyph unicode="~" horiz-adv-x="446" d="M32 322Q32 355 46 374T81 402T125 410Q157 410 183 398T231 369T275 341T320 328Q347 328 362 341T378 378H415Q415 345 401 326T366 298T321 290Q290 290 264 302T216 331T171 359T126 372Q98 372 84 359T69 322H32Z" />
<glyph unicode="&#xa0;" horiz-adv-x="247" />
<glyph unicode="&#xa1;" horiz-adv-x="246" d="M123 532Q159 532 182 509T205 450Q205 417 182 393T123 368Q87 368 65 392T42 450Q42 485 64 508T123 532ZM203 -180H45L68 329H180L203 -180Z" />
<glyph unicode="&#xa2;" horiz-adv-x="427" d="M260 702H297V564H260V702ZM260 138H297V0H260V138ZM23 350Q23 427 44 483T103 575T185 629T278 647Q324 647 354 638T398 617V485H382Q371 498 349 508T297 519Q264 519 235 502T188 447T169 350Q169 290 187 252T235
197T297 179Q327 179 349 190T382 213H398V83Q384 71 354 62T277 52Q229 52 184 70T103 124T45 216T23 350Z" />
<glyph unicode="&#xa3;" horiz-adv-x="448" d="M40 360V323H112Q116 309 118 294T120 262Q120 220 108 189T77 138T43 112V0H421V128H210V134Q219 140 231 157T253 205T264 283Q264 293 263 303T260 323H421V360H251Q244 387 234 409T216 455T208 507Q208 541
229 564T289 587Q339 587 366 567T410 525H420V662Q409 673 392 684T345 703T270 711Q231 711 194 699T128 664T82 606T64 523Q64 467 76 431T101 360H40Z" />
<glyph unicode="&#xa4;" horiz-adv-x="379" d="M189 223Q132 223 98 260T63 349Q63 402 97 439T189 476Q245 476 280 439T315 349Q315 297 280 260T189 223ZM189 272Q223 272 244 294T266 349Q266 381 245 404T189 427Q154 427 133 405T112 349Q112 317 132 295T189
272ZM68 505L130 443L96 409L33 472L68 505ZM283 289L346 227L312 193L249 255L283 289ZM346 472L283 409L249 443L312 506L346 472ZM130 255L68 193L34 227L96 289L130 255Z" />
<glyph unicode="&#xa5;" horiz-adv-x="557" d="M209 289H349V0H209V289ZM18 700H165L274 357H283L392 700H539V686L387 223L170 222L18 686V700ZM55 260H501V222H55V260ZM55 186H501V149H55V186Z" />
<glyph unicode="&#xa6;" horiz-adv-x="137" d="M50 310H87V-82H50V310ZM50 782H87V390H50V782Z" />
<glyph unicode="&#xa7;" horiz-adv-x="362" d="M50 578Q50 554 57 535T76 501T102 475V473Q67 462 45 431T23 352Q23 315 36 289T71 244T114 214L163 185Q192 170 204 157T216 125Q216 105 200 93T160 81Q131 81 96 96T40 131H33V38Q43 31 63 21T111 2T171 -6Q234
-6 273 29T313 129Q313 161 301 185T262 234V237Q297 251 318 282T340 359Q340 406 317 437T245 497L206 521Q180 538 163 552T146 585Q146 605 160 615T195 625Q216 625 239 616T280 595T304 575H311V667Q295 681 264 696T189 712Q131 712 91 678T50 578ZM217
388Q229 379 236 366T243 332Q243 310 229 299T194 288Q183 288 171 294T142 313Q131 323 122 335T113 366Q113 387 126 399T160 412Q178 413 190 407T217 388Z" />
<glyph unicode="&#xa8;" horiz-adv-x="554" d="M197 747Q174 747 157 762T140 804Q140 827 157 843T197 860Q219 860 236 844T253 804Q253 778 236 763T197 747ZM357 746Q335 746 318 762T300 803Q300 827 317 843T357 860Q379 860 396 844T414 803Q414 778 397
762T357 746Z" />
<glyph unicode="&#xa9;" horiz-adv-x="684" d="M32 350Q32 445 57 513T127 626T226 691T342 712Q402 712 457 691T557 626T626 514T652 350Q652 255 627 187T557 74T458 9T342 -12Q282 -12 227 9T127 74T58 186T32 350ZM66 350Q66 237 105 165T206 57T341 22Q395
22 444 41T533 101T595 203T618 350Q618 435 595 496T533 598T444 658T341 678Q269 678 207 643T105 534T66 350ZM129 349Q129 440 160 498T242 585T348 614Q389 614 415 603T455 580V477H447Q436 489 414 502T364 515Q327 515 299 496T254 441T237 349Q237 295
253 258T298 202T364 183Q392 183 414 196T447 221H455V118Q442 107 416 96T348 84Q292 84 242 112T160 199T129 349Z" />
<glyph unicode="&#xaa;" horiz-adv-x="230" d="M12 436V444L67 700H162L217 444V436H162L149 502H80L67 436H12ZM86 549H142L123 650H106L86 549Z" />
<glyph unicode="&#xab;" horiz-adv-x="378" d="M184 559H220V547L60 355V345L220 153V141H184L25 334V366L184 559ZM309 559H344V547L184 355V345L344 153V141H309L150 334V366L309 559Z" />
<glyph unicode="&#xac;" horiz-adv-x="459" d="M28 367H423V329H28V367ZM385 356H423V127H385V356Z" />
<glyph unicode="&#xae;" horiz-adv-x="398" d="M199 344Q145 344 105 368T42 433T19 524Q19 574 41 615T104 680T199 705Q252 705 292 681T355 615T378 524Q378 474 355 433T292 368T199 344ZM199 378Q242 378 275 397T327 449T346 524Q346 566 327 599T275 651T199
671Q155 671 122 652T71 599T53 524Q53 462 92 420T199 378ZM136 631H180V422H134L136 631ZM213 631Q239 631 257 616T275 570Q275 538 256 522T213 506H155V631H213ZM179 544H208Q218 544 224 551T230 568Q230 578 224 584T208 591H179V544ZM192 526H235L275 426V422H230L192
526Z" />
<glyph unicode="&#xaf;" horiz-adv-x="434" d="M131 797H304V750H131V797Z" />
<glyph unicode="&#xb0;" horiz-adv-x="282" d="M141 466Q86 466 52 502T18 589Q18 640 52 676T141 712Q177 712 204 696T248 651T264 589Q264 538 230 502T141 466ZM141 514Q174 514 195 535T216 589Q216 621 195 642T141 664Q107 664 87 643T66 589Q66 557 86
536T141 514Z" />
<glyph unicode="&#xb1;" horiz-adv-x="478" d="M45 426H440V382H45V426ZM265 572V237H220V572H265ZM38 175H433V138H38V175Z" />
<glyph unicode="&#xb2;" horiz-adv-x="287" d="M270 306Q270 339 260 362T230 399T188 420T139 427Q94 427 63 414T17 388V305H28Q35 313 50 323T84 341T125 350Q152 350 168 336T184 297Q184 284 181 271T169 243T141 205T92 151T16 77V0H267V82H134V88L197 153Q220
178 236 202T261 251T270 306Z" />
<glyph unicode="&#xb3;" horiz-adv-x="285" d="M110 188H77V242L162 332V338H22V420H264V343L169 243V238Q196 235 219 222T257 185T271 125Q271 81 252 52T202 8T135 -7Q101 -7 78 -1T39 15T14 33V116H20Q25 110 39 100T75 80T122 71Q147 71 165 85T184 128Q184
160 164 174T110 188Z" />
<glyph unicode="&#xb4;" horiz-adv-x="484" d="M384 860L392 858V805Q363 789 323 778T240 761T158 751T92 748V786Q128 786 181 793T288 817T384 860Z" />
<glyph unicode="&#xb6;" horiz-adv-x="366" d="M239 0H194V372H164Q126 372 92 391T37 447T15 539Q15 623 58 661T164 700H239V0ZM279 700H324V0H279V700Z" />
<glyph unicode="&#xb7;" horiz-adv-x="200" d="M100 271Q63 271 41 295T18 352Q18 386 40 410T100 434Q136 434 158 410T181 352Q181 319 159 295T100 271Z" />
<glyph unicode="&#xb8;" horiz-adv-x="368" d="M186 -39Q212 -39 230 -58T248 -104Q248 -138 227 -155T177 -172Q153 -172 140 -165T118 -151V-113H126Q133 -120 144 -125T168 -130Q183 -130 190 -122T198 -100Q198 -88 190 -79T169 -70Q161 -70 156 -72T146 -78L120
-55L160 0H213L180 -39H186Z" />
<glyph unicode="&#xb9;" horiz-adv-x="203" d="M89 0V329L22 288H15V375L89 420H173V0H89Z" />
<glyph unicode="&#xba;" horiz-adv-x="285" d="M27 570Q27 620 43 651T85 697T142 712Q173 712 199 697T241 651T257 570Q257 520 242 489T200 442T142 427Q112 427 86 442T44 488T27 570ZM84 570Q84 540 92 520T113 489T143 479Q158 479 172 489T194 519T202
570Q202 600 194 620T172 650T143 660Q126 660 113 650T92 620T84 570Z" />
<glyph unicode="&#xbb;" horiz-adv-x="378" d="M194 559L353 366V334L194 141H158V153L318 345V355L158 547V559H194ZM69 559L228 366V334L69 141H33V153L193 345V355L33 547V559H69Z" />
<glyph unicode="&#xbc;" horiz-adv-x="620" d="M97 336V621L39 586H32V661L97 700H170V336H97ZM499 700H525V688L90 0H64V12L499 700ZM481 0V267L402 149V143H590V80H331V150L475 364H554V0H481Z" />
<glyph unicode="&#xbd;" horiz-adv-x="649" d="M112 336V621L54 586H47V661L112 700H185V336H112ZM500 700H525V688L90 0H65V12L500 700ZM603 266Q603 294 594 313T568 345T531 364T489 370Q450 370 424 359T384 336V264H393Q400 271 413 280T442 295T477 302Q500
302 514 291T528 257Q528 246 525 235T515 210T491 177T449 131T383 66V0H600V71H485V76L539 132Q559 154 573 175T595 217T603 266Z" />
<glyph unicode="&#xbe;" horiz-adv-x="658" d="M131 499H102V546L176 623V628H55V700H265V634L182 546V542Q205 539 225 528T258 497T271 444Q271 406 255 381T212 343T153 330Q124 330 104 335T70 349T48 365V436H53Q57 431 70 422T101 405T141 397Q164 397 179
409T195 447Q195 474 178 486T131 499ZM545 700H570V688L135 0H110V12L545 700ZM503 0V267L424 149V143H613V80H353V150L497 364H576V0H503Z" />
<glyph unicode="&#xbf;" horiz-adv-x="439" d="M173 291V331H313V268Q313 232 306 201T281 144T233 94Q217 80 203 68T180 39T174 1Q175 -19 185 -32T213 -52T250 -59Q273 -59 297 -51T343 -30T381 -6T404 15H414V-123Q400 -136 374 -151T313 -177T233 -188Q175
-188 128 -169T52 -109T24 -5Q24 28 34 56T61 107T96 147T129 179Q149 198 158 215T170 252T173 291ZM241 535Q278 535 300 511T323 453Q323 420 301 396T241 371Q205 371 183 395T160 453Q160 487 182 511T241 535Z" />
<glyph unicode="&#xc0;" horiz-adv-x="557" d="M8 0V23L154 700L403 699L550 23V0H404L372 176H186L153 0H8ZM205 299H352L303 567H254L205 299ZM133 860Q174 834 228 818T336 794T425 786V748Q399 748 360 751T278 760T194 778T125 805V858L133 860Z" />
<glyph unicode="&#xc1;" horiz-adv-x="557" d="M8 0V23L154 700L403 699L550 23V0H404L372 176H186L153 0H8ZM205 299H352L303 567H254L205 299ZM425 860L433 858V805Q404 789 364 778T281 761T199 751T133 748V786Q169 786 222 793T329 817T425 860Z" />
<glyph unicode="&#xc2;" horiz-adv-x="557" d="M8 0V23L154 700L403 699L550 23V0H404L372 176H186L153 0H8ZM205 299H352L303 567H254L205 299ZM499 862H570Q593 826 628 805T715 783V746Q666 746 617 760T539 810H530Q501 774 453 760T355 746V783Q407 783 442
805T499 862Z" />
<glyph unicode="&#xc3;" horiz-adv-x="557" d="M8 0V23L154 700L403 699L550 23V0H404L372 176H186L153 0H8ZM205 299H352L303 567H254L205 299ZM279 757Q224 772 188 768T130 749H122V785Q134 796 154 805T206 817T281 809Q336 796 371 796T428 812H436V776Q425
766 405 757T354 746T279 757Z" />
<glyph unicode="&#xc4;" horiz-adv-x="557" d="M8 0V23L154 700L403 699L550 23V0H404L372 176H186L153 0H8ZM205 299H352L303 567H254L205 299ZM199 747Q176 747 159 762T142 804Q142 827 159 843T199 860Q221 860 238 844T255 804Q255 778 238 763T199 747ZM359
746Q337 746 320 762T302 803Q302 827 319 843T359 860Q381 860 398 844T416 803Q416 778 399 762T359 746Z" />
<glyph unicode="&#xc5;" horiz-adv-x="557" d="M8 0V23L154 700L403 699L550 23V0H404L372 176H186L153 0H8ZM205 299H352L303 567H254L205 299ZM279 744Q249 744 226 766T202 821Q202 855 225 876T279 898Q310 898 333 877T356 821Q356 788 333 766T279 744ZM244
820Q244 806 254 796T279 786Q293 786 303 796T314 820Q314 835 304 845T279 855Q265 855 255 845T244 820Z" />
<glyph unicode="&#xc6;" horiz-adv-x="700" d="M8 0V23L154 700L403 699V567H251L153 0H8ZM135 305H410V183H135V305ZM673 700V572H454V401Q485 413 519 420T588 429T651 427V304L641 298Q619 305 588 306T522 302T454 285V128H673V0H314V700H673Z" />
<glyph unicode="&#xc7;" horiz-adv-x="500" d="M23 350Q23 443 48 511T115 623T212 689T324 711Q380 711 416 700T469 674V540H450Q436 555 410 568T346 581Q294 581 254 555T192 477T169 350Q169 275 191 224T254 146T346 119Q384 119 410 132T450 160H469V26Q453
13 417 1T324 -11Q266 -11 212 10T116 76T48 189T23 350ZM329 -39Q355 -39 373 -58T391 -104Q391 -138 370 -155T320 -172Q296 -172 283 -165T261 -151V-113H269Q276 -120 287 -125T311 -130Q326 -130 333 -122T341 -100Q341 -88 333 -79T312 -70Q304 -70 299 -72T289
-78L263 -55L303 0H356L323 -39H329Z" />
<glyph unicode="&#xc8;" horiz-adv-x="435" d="M408 700V572H189V401Q220 413 254 420T323 429T386 427V304L377 298Q354 305 324 306T258 302T189 285V128H408V0H49V700H408ZM339 860Q380 834 434 818T542 794T631 786V748Q605 748 566 751T484 760T400 778T331
805V858L339 860Z" />
<glyph unicode="&#xc9;" horiz-adv-x="435" d="M408 700V572H189V401Q220 413 254 420T323 429T386 427V304L377 298Q354 305 324 306T258 302T189 285V128H408V0H49V700H408ZM631 860L639 858V805Q610 789 570 778T487 761T405 751T339 748V786Q375 786 428 793T535
817T631 860Z" />
<glyph unicode="&#xca;" horiz-adv-x="435" d="M408 700V572H189V401Q220 413 254 420T323 429T386 427V304L377 298Q354 305 324 306T258 302T189 285V128H408V0H49V700H408ZM449 862H520Q543 826 578 805T665 783V746Q616 746 567 760T489 810H480Q451 774 403
760T305 746V783Q357 783 392 805T449 862Z" />
<glyph unicode="&#xcb;" horiz-adv-x="435" d="M408 700V572H189V401Q220 413 254 420T323 429T386 427V304L377 298Q354 305 324 306T258 302T189 285V128H408V0H49V700H408ZM405 747Q382 747 365 762T348 804Q348 827 365 843T405 860Q427 860 444 844T461 804Q461
778 444 763T405 747ZM565 746Q543 746 526 762T508 803Q508 827 525 843T565 860Q587 860 604 844T622 803Q622 778 605 762T565 746Z" />
<glyph unicode="&#xcc;" horiz-adv-x="240" d="M49 700H189V0H49V700ZM229 860Q270 834 324 818T432 794T521 786V748Q495 748 456 751T374 760T290 778T221 805V858L229 860Z" />
<glyph unicode="&#xcd;" horiz-adv-x="240" d="M49 700H189V0H49V700ZM521 860L529 858V805Q500 789 460 778T377 761T295 751T229 748V786Q265 786 318 793T425 817T521 860Z" />
<glyph unicode="&#xce;" horiz-adv-x="240" d="M49 700H189V0H49V700ZM83 862H154Q177 826 212 805T299 783V746Q250 746 201 760T123 810H114Q85 774 37 760T-61 746V783Q-9 783 26 805T83 862Z" />
<glyph unicode="&#xcf;" horiz-adv-x="240" d="M49 700H189V0H49V700ZM39 747Q16 747 -1 762T-18 804Q-18 827 -1 843T39 860Q61 860 78 844T95 804Q95 778 78 763T39 747ZM199 746Q177 746 160 762T142 803Q142 827 159 843T199 860Q221 860 238 844T256 803Q256
778 239 762T199 746Z" />
<glyph unicode="&#xd0;" horiz-adv-x="579" d="M292 323V375H210V567H260Q327 567 369 511T412 350Q412 247 370 190T260 133H210V323H292ZM20 323H70V0H262Q346 0 412 37T517 152T556 350Q556 471 517 548T412 662T262 700H70V375H20V323Z" />
<glyph unicode="&#xd1;" horiz-adv-x="567" d="M380 700H517V0H364L191 434H180L186 0H49V700H202L375 260H386L380 700ZM283 757Q228 772 192 768T134 749H126V785Q138 796 158 805T210 817T285 809Q340 796 375 796T432 812H440V776Q429 766 409 757T358 746T283 757Z" />
<glyph unicode="&#xd2;" horiz-adv-x="633" d="M23 350Q23 477 64 557T171 674T316 712Q394 712 460 675T568 557T609 350Q609 223 568 143T461 26T316 -12Q238 -12 172 25T64 143T23 350ZM169 350Q169 274 188 223T241 147T316 121Q357 121 391 146T446 223T466
350Q466 427 446 478T391 554T317 579Q275 579 242 553T189 477T169 350ZM170 860Q211 834 265 818T373 794T462 786V748Q436 748 397 751T315 760T231 778T162 805V858L170 860Z" />
<glyph unicode="&#xd3;" horiz-adv-x="633" d="M23 350Q23 477 64 557T171 674T316 712Q394 712 460 675T568 557T609 350Q609 223 568 143T461 26T316 -12Q238 -12 172 25T64 143T23 350ZM169 350Q169 274 188 223T241 147T316 121Q357 121 391 146T446 223T466
350Q466 427 446 478T391 554T317 579Q275 579 242 553T189 477T169 350ZM463 860L471 858V805Q442 789 402 778T319 761T237 751T171 748V786Q207 786 260 793T367 817T463 860Z" />
<glyph unicode="&#xd4;" horiz-adv-x="633" d="M23 350Q23 477 64 557T171 674T316 712Q394 712 460 675T568 557T609 350Q609 223 568 143T461 26T316 -12Q238 -12 172 25T64 143T23 350ZM169 350Q169 274 188 223T241 147T316 121Q357 121 391 146T446 223T466
350Q466 427 446 478T391 554T317 579Q275 579 242 553T189 477T169 350ZM280 862H351Q374 826 409 805T496 783V746Q447 746 398 760T320 810H311Q282 774 234 760T136 746V783Q188 783 223 805T280 862Z" />
<glyph unicode="&#xd5;" horiz-adv-x="633" d="M23 350Q23 477 64 557T171 674T316 712Q394 712 460 675T568 557T609 350Q609 223 568 143T461 26T316 -12Q238 -12 172 25T64 143T23 350ZM169 350Q169 274 188 223T241 147T316 121Q357 121 391 146T446 223T466
350Q466 427 446 478T391 554T317 579Q275 579 242 553T189 477T169 350ZM316 757Q261 772 225 768T167 749H159V785Q171 796 191 805T243 817T318 809Q373 796 408 796T465 812H473V776Q462 766 442 757T391 746T316 757Z" />
<glyph unicode="&#xd6;" horiz-adv-x="633" d="M23 350Q23 477 64 557T171 674T316 712Q394 712 460 675T568 557T609 350Q609 223 568 143T461 26T316 -12Q238 -12 172 25T64 143T23 350ZM169 350Q169 274 188 223T241 147T316 121Q357 121 391 146T446 223T466
350Q466 427 446 478T391 554T317 579Q275 579 242 553T189 477T169 350ZM237 747Q214 747 197 762T180 804Q180 827 197 843T237 860Q259 860 276 844T293 804Q293 778 276 763T237 747ZM397 746Q375 746 358 762T340 803Q340 827 357 843T397 860Q419 860 436
844T454 803Q454 778 437 762T397 746Z" />
<glyph unicode="&#xd7;" horiz-adv-x="380" d="M63 498L342 219L316 192L37 472L63 498ZM343 472L64 192L38 219L317 498L343 472Z" />
<glyph unicode="&#xd8;" horiz-adv-x="633" d="M23 350Q23 477 64 557T171 674T316 712Q394 712 460 675T568 557T609 350Q609 223 568 143T461 26T316 -12Q238 -12 172 25T64 143T23 350ZM169 350Q169 274 188 223T241 147T316 121Q357 121 391 146T446 223T466
350Q466 427 446 478T391 554T317 579Q275 579 242 553T189 477T169 350ZM426 782H462V770L204 -82H168V-70L426 782Z" />
<glyph unicode="&#xd9;" horiz-adv-x="566" d="M523 243V700H382V261Q382 222 371 193T338 147T283 130Q250 130 228 146T195 192T184 261V700H43V243Q43 172 64 123T120 45T198 2T283 -11Q325 -11 367 2T445 44T502 123T523 243ZM137 860Q178 834 232 818T340
794T429 786V748Q403 748 364 751T282 760T198 778T129 805V858L137 860Z" />
<glyph unicode="&#xda;" horiz-adv-x="566" d="M523 243V700H382V261Q382 222 371 193T338 147T283 130Q250 130 228 146T195 192T184 261V700H43V243Q43 172 64 123T120 45T198 2T283 -11Q325 -11 367 2T445 44T502 123T523 243ZM429 860L437 858V805Q408 789
368 778T285 761T203 751T137 748V786Q173 786 226 793T333 817T429 860Z" />
<glyph unicode="&#xdb;" horiz-adv-x="566" d="M523 243V700H382V261Q382 222 371 193T338 147T283 130Q250 130 228 146T195 192T184 261V700H43V243Q43 172 64 123T120 45T198 2T283 -11Q325 -11 367 2T445 44T502 123T523 243ZM503 862H574Q597 826 632 805T719
783V746Q670 746 621 760T543 810H534Q505 774 457 760T359 746V783Q411 783 446 805T503 862Z" />
<glyph unicode="&#xdc;" horiz-adv-x="566" d="M523 243V700H382V261Q382 222 371 193T338 147T283 130Q250 130 228 146T195 192T184 261V700H43V243Q43 172 64 123T120 45T198 2T283 -11Q325 -11 367 2T445 44T502 123T523 243ZM203 747Q180 747 163 762T146
804Q146 827 163 843T203 860Q225 860 242 844T259 804Q259 778 242 763T203 747ZM363 746Q341 746 324 762T306 803Q306 827 323 843T363 860Q385 860 402 844T420 803Q420 778 403 762T363 746Z" />
<glyph unicode="&#xdd;" horiz-adv-x="543" d="M9 700H155L243 357H299L388 700H534V677L403 223H342V0H202V222H140L9 677V700ZM418 860L426 858V805Q397 789 357 778T274 761T192 751T126 748V786Q162 786 215 793T322 817T418 860Z" />
<glyph unicode="&#xde;" horiz-adv-x="517" d="M49 0V700H189V624H294Q358 624 406 600T481 525T509 392Q509 311 480 258T401 178T294 151H189V0H49ZM189 272H274Q302 272 322 286T354 325T365 386Q365 420 354 445T323 483T274 497H189V272Z" />
<glyph unicode="&#xdf;" horiz-adv-x="533" d="M226 0V127H287Q325 127 348 149T372 215Q372 256 348 278T287 301H226V411H285Q317 411 337 433T358 495Q358 535 335 557T272 579Q232 579 208 555T183 476V0H43V475Q43 543 66 596T141 679T272 709Q340 709 389
688T466 628T494 535Q494 489 478 457T438 408T394 384V377Q422 370 450 349T498 290T518 197Q518 92 463 46T314 0H226Z" />
<glyph unicode="&#xe0;" horiz-adv-x="557" d="M8 0V23L154 700L403 699L550 23V0H404L372 176H186L153 0H8ZM205 299H352L303 567H254L205 299ZM133 860Q174 834 228 818T336 794T425 786V748Q399 748 360 751T278 760T194 778T125 805V858L133 860Z" />
<glyph unicode="&#xe1;" horiz-adv-x="557" d="M8 0V23L154 700L403 699L550 23V0H404L372 176H186L153 0H8ZM205 299H352L303 567H254L205 299ZM425 860L433 858V805Q404 789 364 778T281 761T199 751T133 748V786Q169 786 222 793T329 817T425 860Z" />
<glyph unicode="&#xe2;" horiz-adv-x="557" d="M8 0V23L154 700L403 699L550 23V0H404L372 176H186L153 0H8ZM205 299H352L303 567H254L205 299ZM499 862H570Q593 826 628 805T715 783V746Q666 746 617 760T539 810H530Q501 774 453 760T355 746V783Q407 783 442
805T499 862Z" />
<glyph unicode="&#xe3;" horiz-adv-x="557" d="M8 0V23L154 700L403 699L550 23V0H404L372 176H186L153 0H8ZM205 299H352L303 567H254L205 299ZM279 757Q224 772 188 768T130 749H122V785Q134 796 154 805T206 817T281 809Q336 796 371 796T428 812H436V776Q425
766 405 757T354 746T279 757Z" />
<glyph unicode="&#xe4;" horiz-adv-x="557" d="M8 0V23L154 700L403 699L550 23V0H404L372 176H186L153 0H8ZM205 299H352L303 567H254L205 299ZM199 747Q176 747 159 762T142 804Q142 827 159 843T199 860Q221 860 238 844T255 804Q255 778 238 763T199 747ZM359
746Q337 746 320 762T302 803Q302 827 319 843T359 860Q381 860 398 844T416 803Q416 778 399 762T359 746Z" />
<glyph unicode="&#xe5;" horiz-adv-x="557" d="M8 0V23L154 700L403 699L550 23V0H404L372 176H186L153 0H8ZM205 299H352L303 567H254L205 299ZM279 744Q249 744 226 766T202 821Q202 855 225 876T279 898Q310 898 333 877T356 821Q356 788 333 766T279 744ZM244
820Q244 806 254 796T279 786Q293 786 303 796T314 820Q314 835 304 845T279 855Q265 855 255 845T244 820Z" />
<glyph unicode="&#xe6;" horiz-adv-x="700" d="M8 0V23L154 700L403 699V567H251L153 0H8ZM135 305H410V183H135V305ZM673 700V572H454V401Q485 413 519 420T588 429T651 427V304L641 298Q619 305 588 306T522 302T454 285V128H673V0H314V700H673Z" />
<glyph unicode="&#xe7;" horiz-adv-x="500" d="M23 350Q23 443 48 511T115 623T212 689T324 711Q380 711 416 700T469 674V540H450Q436 555 410 568T346 581Q294 581 254 555T192 477T169 350Q169 275 191 224T254 146T346 119Q384 119 410 132T450 160H469V26Q453
13 417 1T324 -11Q266 -11 212 10T116 76T48 189T23 350ZM329 -39Q355 -39 373 -58T391 -104Q391 -138 370 -155T320 -172Q296 -172 283 -165T261 -151V-113H269Q276 -120 287 -125T311 -130Q326 -130 333 -122T341 -100Q341 -88 333 -79T312 -70Q304 -70 299 -72T289
-78L263 -55L303 0H356L323 -39H329Z" />
<glyph unicode="&#xe8;" horiz-adv-x="435" d="M408 700V572H189V401Q220 413 254 420T323 429T386 427V304L377 298Q354 305 324 306T258 302T189 285V128H408V0H49V700H408ZM339 860Q380 834 434 818T542 794T631 786V748Q605 748 566 751T484 760T400 778T331
805V858L339 860Z" />
<glyph unicode="&#xe9;" horiz-adv-x="435" d="M408 700V572H189V401Q220 413 254 420T323 429T386 427V304L377 298Q354 305 324 306T258 302T189 285V128H408V0H49V700H408ZM631 860L639 858V805Q610 789 570 778T487 761T405 751T339 748V786Q375 786 428 793T535
817T631 860Z" />
<glyph unicode="&#xea;" horiz-adv-x="435" d="M408 700V572H189V401Q220 413 254 420T323 429T386 427V304L377 298Q354 305 324 306T258 302T189 285V128H408V0H49V700H408ZM449 862H520Q543 826 578 805T665 783V746Q616 746 567 760T489 810H480Q451 774 403
760T305 746V783Q357 783 392 805T449 862Z" />
<glyph unicode="&#xeb;" horiz-adv-x="435" d="M408 700V572H189V401Q220 413 254 420T323 429T386 427V304L377 298Q354 305 324 306T258 302T189 285V128H408V0H49V700H408ZM405 747Q382 747 365 762T348 804Q348 827 365 843T405 860Q427 860 444 844T461 804Q461
778 444 763T405 747ZM565 746Q543 746 526 762T508 803Q508 827 525 843T565 860Q587 860 604 844T622 803Q622 778 605 762T565 746Z" />
<glyph unicode="&#xec;" horiz-adv-x="240" d="M49 700H189V0H49V700ZM229 860Q270 834 324 818T432 794T521 786V748Q495 748 456 751T374 760T290 778T221 805V858L229 860Z" />
<glyph unicode="&#xed;" horiz-adv-x="240" d="M49 700H189V0H49V700ZM521 860L529 858V805Q500 789 460 778T377 761T295 751T229 748V786Q265 786 318 793T425 817T521 860Z" />
<glyph unicode="&#xee;" horiz-adv-x="240" d="M49 700H189V0H49V700ZM83 862H154Q177 826 212 805T299 783V746Q250 746 201 760T123 810H114Q85 774 37 760T-61 746V783Q-9 783 26 805T83 862Z" />
<glyph unicode="&#xef;" horiz-adv-x="240" d="M49 700H189V0H49V700ZM39 747Q16 747 -1 762T-18 804Q-18 827 -1 843T39 860Q61 860 78 844T95 804Q95 778 78 763T39 747ZM199 746Q177 746 160 762T142 803Q142 827 159 843T199 860Q221 860 238 844T256 803Q256
778 239 762T199 746Z" />
<glyph unicode="&#xf0;" horiz-adv-x="579" d="M292 323V375H210V567H260Q327 567 369 511T412 350Q412 247 370 190T260 133H210V323H292ZM20 323H70V0H262Q346 0 412 37T517 152T556 350Q556 471 517 548T412 662T262 700H70V375H20V323Z" />
<glyph unicode="&#xf1;" horiz-adv-x="567" d="M380 700H517V0H364L191 434H180L186 0H49V700H202L375 260H386L380 700ZM283 757Q228 772 192 768T134 749H126V785Q138 796 158 805T210 817T285 809Q340 796 375 796T432 812H440V776Q429 766 409 757T358 746T283 757Z" />
<glyph unicode="&#xf2;" horiz-adv-x="633" d="M23 350Q23 477 64 557T171 674T316 712Q394 712 460 675T568 557T609 350Q609 223 568 143T461 26T316 -12Q238 -12 172 25T64 143T23 350ZM169 350Q169 274 188 223T241 147T316 121Q357 121 391 146T446 223T466
350Q466 427 446 478T391 554T317 579Q275 579 242 553T189 477T169 350ZM170 860Q211 834 265 818T373 794T462 786V748Q436 748 397 751T315 760T231 778T162 805V858L170 860Z" />
<glyph unicode="&#xf3;" horiz-adv-x="633" d="M23 350Q23 477 64 557T171 674T316 712Q394 712 460 675T568 557T609 350Q609 223 568 143T461 26T316 -12Q238 -12 172 25T64 143T23 350ZM169 350Q169 274 188 223T241 147T316 121Q357 121 391 146T446 223T466
350Q466 427 446 478T391 554T317 579Q275 579 242 553T189 477T169 350ZM463 860L471 858V805Q442 789 402 778T319 761T237 751T171 748V786Q207 786 260 793T367 817T463 860Z" />
<glyph unicode="&#xf4;" horiz-adv-x="633" d="M23 350Q23 477 64 557T171 674T316 712Q394 712 460 675T568 557T609 350Q609 223 568 143T461 26T316 -12Q238 -12 172 25T64 143T23 350ZM169 350Q169 274 188 223T241 147T316 121Q357 121 391 146T446 223T466
350Q466 427 446 478T391 554T317 579Q275 579 242 553T189 477T169 350ZM280 862H351Q374 826 409 805T496 783V746Q447 746 398 760T320 810H311Q282 774 234 760T136 746V783Q188 783 223 805T280 862Z" />
<glyph unicode="&#xf5;" horiz-adv-x="633" d="M23 350Q23 477 64 557T171 674T316 712Q394 712 460 675T568 557T609 350Q609 223 568 143T461 26T316 -12Q238 -12 172 25T64 143T23 350ZM169 350Q169 274 188 223T241 147T316 121Q357 121 391 146T446 223T466
350Q466 427 446 478T391 554T317 579Q275 579 242 553T189 477T169 350ZM316 757Q261 772 225 768T167 749H159V785Q171 796 191 805T243 817T318 809Q373 796 408 796T465 812H473V776Q462 766 442 757T391 746T316 757Z" />
<glyph unicode="&#xf6;" horiz-adv-x="633" d="M23 350Q23 477 64 557T171 674T316 712Q394 712 460 675T568 557T609 350Q609 223 568 143T461 26T316 -12Q238 -12 172 25T64 143T23 350ZM169 350Q169 274 188 223T241 147T316 121Q357 121 391 146T446 223T466
350Q466 427 446 478T391 554T317 579Q275 579 242 553T189 477T169 350ZM237 747Q214 747 197 762T180 804Q180 827 197 843T237 860Q259 860 276 844T293 804Q293 778 276 763T237 747ZM397 746Q375 746 358 762T340 803Q340 827 357 843T397 860Q419 860 436
844T454 803Q454 778 437 762T397 746Z" />
<glyph unicode="&#xf7;" horiz-adv-x="470" d="M38 364H433V326H38V364ZM38 364H433V326H38V364ZM285 481Q285 459 271 446T236 432Q214 432 200 445T186 482Q186 501 200 516T236 531Q257 531 271 516T285 481ZM285 210Q285 188 271 174T236 160Q214 160 200
174T186 210Q186 229 200 244T236 260Q257 260 271 245T285 210Z" />
<glyph unicode="&#xf8;" horiz-adv-x="633" d="M23 350Q23 477 64 557T171 674T316 712Q394 712 460 675T568 557T609 350Q609 223 568 143T461 26T316 -12Q238 -12 172 25T64 143T23 350ZM169 350Q169 274 188 223T241 147T316 121Q357 121 391 146T446 223T466
350Q466 427 446 478T391 554T317 579Q275 579 242 553T189 477T169 350ZM426 782H462V770L204 -82H168V-70L426 782Z" />
<glyph unicode="&#xf9;" horiz-adv-x="566" d="M523 243V700H382V261Q382 222 371 193T338 147T283 130Q250 130 228 146T195 192T184 261V700H43V243Q43 172 64 123T120 45T198 2T283 -11Q325 -11 367 2T445 44T502 123T523 243ZM137 860Q178 834 232 818T340
794T429 786V748Q403 748 364 751T282 760T198 778T129 805V858L137 860Z" />
<glyph unicode="&#xfa;" horiz-adv-x="566" d="M523 243V700H382V261Q382 222 371 193T338 147T283 130Q250 130 228 146T195 192T184 261V700H43V243Q43 172 64 123T120 45T198 2T283 -11Q325 -11 367 2T445 44T502 123T523 243ZM429 860L437 858V805Q408 789
368 778T285 761T203 751T137 748V786Q173 786 226 793T333 817T429 860Z" />
<glyph unicode="&#xfb;" horiz-adv-x="566" d="M523 243V700H382V261Q382 222 371 193T338 147T283 130Q250 130 228 146T195 192T184 261V700H43V243Q43 172 64 123T120 45T198 2T283 -11Q325 -11 367 2T445 44T502 123T523 243ZM503 862H574Q597 826 632 805T719
783V746Q670 746 621 760T543 810H534Q505 774 457 760T359 746V783Q411 783 446 805T503 862Z" />
<glyph unicode="&#xfc;" horiz-adv-x="566" d="M523 243V700H382V261Q382 222 371 193T338 147T283 130Q250 130 228 146T195 192T184 261V700H43V243Q43 172 64 123T120 45T198 2T283 -11Q325 -11 367 2T445 44T502 123T523 243ZM203 747Q180 747 163 762T146
804Q146 827 163 843T203 860Q225 860 242 844T259 804Q259 778 242 763T203 747ZM363 746Q341 746 324 762T306 803Q306 827 323 843T363 860Q385 860 402 844T420 803Q420 778 403 762T363 746Z" />
<glyph unicode="&#xfd;" horiz-adv-x="543" d="M9 700H155L243 357H299L388 700H534V677L403 223H342V0H202V222H140L9 677V700ZM418 860L426 858V805Q397 789 357 778T274 761T192 751T126 748V786Q162 786 215 793T322 817T418 860Z" />
<glyph unicode="&#xfe;" horiz-adv-x="517" d="M49 0V700H189V624H294Q358 624 406 600T481 525T509 392Q509 311 480 258T401 178T294 151H189V0H49ZM189 272H274Q302 272 322 286T354 325T365 386Q365 420 354 445T323 483T274 497H189V272Z" />
<glyph unicode="&#xff;" horiz-adv-x="543" d="M9 700H155L243 357H299L388 700H534V677L403 223H342V0H202V222H140L9 677V700ZM448 747Q425 747 408 762T391 804Q391 827 408 843T448 860Q470 860 487 844T504 804Q504 778 487 763T448 747ZM608 746Q586 746
569 762T551 803Q551 827 568 843T608 860Q630 860 647 844T665 803Q665 778 648 762T608 746Z" />
<glyph unicode="&#x2013;" horiz-adv-x="440" d="M33 364H408V326H33V364Z" />
<glyph unicode="&#x2014;" horiz-adv-x="587" d="M28 364H558V326H28V364ZM28 364H558V326H28V364Z" />
<glyph unicode="&#x2018;" horiz-adv-x="202" d="M97 662H183L136 448H6V459L97 662Z" />
<glyph unicode="&#x2019;" horiz-adv-x="202" d="M104 486H19L66 700H196V688L104 486Z" />
<glyph unicode="&#x201a;" horiz-adv-x="202" d="M105 -71H20L67 143H197V131L105 -71Z" />
<glyph unicode="&#x201c;" horiz-adv-x="362" d="M256 700H341L294 486H164V497L256 700ZM95 700H180L134 486H3V497L95 700Z" />
<glyph unicode="&#x201d;" horiz-adv-x="362" d="M106 487H21L68 701H198V689L106 487ZM266 487H181L228 701H358V689L266 487Z" />
<glyph unicode="&#x201e;" horiz-adv-x="363" d="M105 -70H20L67 144H197V132L105 -70ZM266 -70H181L228 144H358V132L266 -70Z" />
<glyph unicode="&#x2022;" horiz-adv-x="286" d="M143 237Q109 237 83 252T43 294T28 352Q28 384 42 410T83 452T143 468Q177 468 203 453T243 411T258 352Q258 320 244 294T203 253T143 237Z" />
<glyph unicode="&#x2039;" horiz-adv-x="255" d="M184 559H220V547L60 355V345L220 153V141H184L25 334V366L184 559Z" />
<glyph unicode="&#x203a;" horiz-adv-x="255" d="M71 559L230 366V334L71 141H35V153L195 345V355L35 547V559H71Z" />
</font>
</defs>
</svg>
