<svg width="23" height="32" viewBox="0 0 23 32" fill="none" xmlns="http://www.w3.org/2000/svg">
<path d="M22.4552 15.9718L22.4363 15.8966C19.668 7.2086 11.4193 1.0405 11.0685 0.783502L10.0038 0L10.0728 1.31634C10.0728 1.3728 10.2668 6.47517 5.32513 10.7189C-0.0424981 15.3324 -0.0111641 19.1373 0.00134199 21.1808L0.00766413 21.4628C0.00766413 27.0354 4.09385 31.202 9.93988 31.8889C9.62171 31.8388 9.29659 31.7739 8.97037 31.674C7.08511 31.0911 5.9828 29.7685 5.76985 27.8628L5.71978 27.4868C5.55067 26.0137 5.33138 24.1896 8.55073 20.7295C9.75323 19.4382 10.7992 18.0466 11.6636 16.5985L12.0957 15.8715L12.6657 16.4983C14.3693 18.36 15.672 20.2405 16.5489 22.0708C17.3568 23.6881 17.407 26.2456 17.3443 26.791C17.0374 29.5741 15.0269 31.649 12.3337 31.9499C12.1582 31.9699 11.8954 31.9893 11.5737 31.9965C11.602 31.9967 11.6289 32 11.6573 32C18.0207 32 23 26.8787 23 20.3408C23 18.7737 22.4739 16.0846 22.4552 15.9718Z" fill="url(#paint0_linear_2142_105)"/>
<defs>
<linearGradient id="paint0_linear_2142_105" x1="11.5" y1="1.07102e-08" x2="12" y2="32" gradientUnits="userSpaceOnUse">
<stop stop-color="#FFCE4F"/>
<stop offset="0.505208" stop-color="#FFBD81"/>
<stop offset="1" stop-color="#FF5A5A"/>
</linearGradient>
</defs>
</svg>
